<svg width="102" height="21" viewBox="0 0 102 21" fill="none" xmlns="http://www.w3.org/2000/svg">
<path fill-rule="evenodd" clip-rule="evenodd" d="M0 10.4403C0 4.6741 4.6741 0 10.4403 0C16.2064 0 20.8805 4.6741 20.8805 10.4403C20.8805 16.2064 16.2064 20.8805 10.4403 20.8805C4.6741 20.8805 0 16.2064 0 10.4403ZM2.15278 9.39623C2.29012 8.29222 2.648 7.2271 3.20516 6.26415H17.6753C18.2325 7.2271 18.5904 8.29222 18.7277 9.39623H2.15278ZM10.4403 2.08805C12.4753 2.08503 14.4409 2.82788 15.9652 4.1761H4.91527C6.43963 2.82788 8.40522 2.08503 10.4403 2.08805ZM15.9652 16.7044C14.4409 18.0526 12.4753 18.7955 10.4403 18.7925C8.40522 18.7955 6.43963 18.0526 4.91527 16.7044H15.9652ZM17.6753 14.6164H3.20516C2.648 13.6534 2.29012 12.5883 2.15278 11.4843H18.7277C18.5904 12.5883 18.2325 13.6534 17.6753 14.6164Z" fill="#34363B"/>
<path d="M34.4423 16.1595C33.5654 16.1595 32.7858 15.9524 32.1037 15.5383C31.4338 15.1242 30.9101 14.5578 30.5325 13.8391C30.1671 13.1083 29.9844 12.2801 29.9844 11.3544C29.9844 10.4287 30.1671 9.60649 30.5325 8.88786C30.9101 8.16922 31.4399 7.60893 32.122 7.20698C32.8041 6.79285 33.5836 6.58578 34.4606 6.58578C35.1793 6.58578 35.8126 6.73194 36.3607 7.02427C36.9089 7.30442 37.3352 7.70028 37.6397 8.21185V2.78553H39.4667V15.9402H37.8406L37.6397 14.5152C37.457 14.7953 37.2195 15.0633 36.9271 15.3191C36.6348 15.5627 36.2816 15.7636 35.8674 15.922C35.4533 16.0803 34.9783 16.1595 34.4423 16.1595ZM34.7347 14.57C35.3071 14.57 35.8065 14.436 36.2328 14.168C36.6713 13.9 37.0124 13.5285 37.256 13.0535C37.4996 12.5663 37.6214 12.006 37.6214 11.3726C37.6214 10.7271 37.4996 10.1668 37.256 9.69176C37.0124 9.21672 36.6713 8.84523 36.2328 8.57726C35.8065 8.30929 35.3071 8.17531 34.7347 8.17531C34.1744 8.17531 33.675 8.30929 33.2365 8.57726C32.798 8.84523 32.457 9.21672 32.2134 9.69176C31.9697 10.1668 31.8479 10.7271 31.8479 11.3726C31.8479 12.006 31.9697 12.5663 32.2134 13.0535C32.457 13.5285 32.798 13.9 33.2365 14.168C33.675 14.436 34.1744 14.57 34.7347 14.57ZM46.1307 16.1595C45.2416 16.1595 44.4559 15.9646 43.7738 15.5748C43.0917 15.1729 42.5558 14.6126 42.166 13.894C41.7884 13.1753 41.5996 12.341 41.5996 11.3909C41.5996 10.4287 41.7884 9.58822 42.166 8.86959C42.5436 8.15095 43.0735 7.59066 43.7556 7.18871C44.4498 6.78676 45.2476 6.58578 46.149 6.58578C47.0503 6.58578 47.8238 6.78676 48.4693 7.18871C49.1149 7.57848 49.6143 8.10223 49.9675 8.75996C50.3207 9.4177 50.4974 10.1424 50.4974 10.9341C50.4974 11.0559 50.4974 11.1899 50.4974 11.3361C50.4974 11.4701 50.4913 11.6223 50.4791 11.7929H42.9334V10.5139H48.6703C48.6459 9.75875 48.3902 9.168 47.9029 8.74169C47.4279 8.31538 46.8372 8.10223 46.1307 8.10223C45.6435 8.10223 45.1867 8.21185 44.7604 8.4311C44.3463 8.65034 44.0113 8.97312 43.7556 9.39943C43.512 9.82574 43.3902 10.3678 43.3902 11.0255V11.5371C43.3902 12.207 43.512 12.7734 43.7556 13.2362C44.0113 13.6991 44.3463 14.0523 44.7604 14.2959C45.1746 14.5273 45.6252 14.643 46.1124 14.643C46.6971 14.643 47.1782 14.5152 47.5558 14.2594C47.9456 13.9914 48.2318 13.6382 48.4145 13.1997H50.2416C50.0832 13.76 49.8153 14.2655 49.4377 14.7161C49.0601 15.1546 48.5911 15.5078 48.0308 15.7758C47.4827 16.0316 46.8494 16.1595 46.1307 16.1595ZM56.09 16.1595C55.3226 16.1595 54.6466 16.0316 54.0619 15.7758C53.4773 15.52 53.0083 15.1607 52.6551 14.6979C52.3141 14.235 52.107 13.6991 52.0339 13.0901H53.8792C53.9523 13.3702 54.0802 13.6321 54.2629 13.8757C54.4456 14.1193 54.6892 14.3142 54.9937 14.4603C55.2982 14.6065 55.6637 14.6796 56.09 14.6796C56.4919 14.6796 56.8208 14.6248 57.0766 14.5152C57.3324 14.3933 57.5211 14.235 57.6429 14.0401C57.7769 13.8452 57.8439 13.6321 57.8439 13.4007C57.8439 13.0718 57.7587 12.8221 57.5881 12.6516C57.4176 12.4689 57.1679 12.3288 56.839 12.2313C56.5224 12.1217 56.1387 12.0243 55.688 11.939C55.2861 11.8538 54.8902 11.7502 54.5004 11.6284C54.1107 11.5066 53.7574 11.3483 53.4407 11.1534C53.1241 10.9585 52.8683 10.7149 52.6734 10.4226C52.4907 10.1302 52.3993 9.76484 52.3993 9.32635C52.3993 8.80259 52.5394 8.33365 52.8196 7.91952C53.0997 7.50539 53.4956 7.18262 54.0071 6.95119C54.5187 6.70758 55.1338 6.58578 55.8524 6.58578C56.8634 6.58578 57.6795 6.82939 58.3007 7.3166C58.9219 7.79163 59.2873 8.47373 59.3969 9.36289H57.6247C57.576 8.96094 57.3933 8.64425 57.0766 8.41283C56.7721 8.1814 56.3579 8.06569 55.8342 8.06569C55.3104 8.06569 54.9085 8.16922 54.6283 8.37628C54.3604 8.58335 54.2264 8.85741 54.2264 9.19845C54.2264 9.4177 54.3055 9.61258 54.4639 9.78311C54.6222 9.94145 54.8537 10.0815 55.1582 10.2033C55.4749 10.313 55.8524 10.4104 56.2909 10.4957C56.9121 10.6296 57.4785 10.788 57.9901 10.9707C58.5017 11.1412 58.9097 11.4031 59.2142 11.7563C59.5309 12.1095 59.6892 12.615 59.6892 13.2728C59.7014 13.8331 59.5553 14.3324 59.2507 14.7709C58.9584 15.2094 58.5443 15.5505 58.0084 15.7941C57.4724 16.0377 56.833 16.1595 56.09 16.1595ZM66.0979 16.1595C65.2087 16.1595 64.417 15.9585 63.7227 15.5566C63.0284 15.1546 62.4803 14.5943 62.0784 13.8757C61.6886 13.157 61.4937 12.3227 61.4937 11.3726C61.4937 10.4226 61.6886 9.58822 62.0784 8.86959C62.4803 8.15095 63.0284 7.59066 63.7227 7.18871C64.417 6.78676 65.2087 6.58578 66.0979 6.58578C67.2185 6.58578 68.1503 6.87811 68.8933 7.46276C69.6484 8.03524 70.1296 8.81477 70.3366 9.80138H68.4365C68.3147 9.27763 68.0345 8.86959 67.5961 8.57726C67.1697 8.28493 66.6643 8.13877 66.0796 8.13877C65.5924 8.13877 65.1417 8.26057 64.7276 8.50418C64.3135 8.74778 63.9785 9.11319 63.7227 9.6004C63.4791 10.0754 63.3573 10.6662 63.3573 11.3726C63.3573 11.8964 63.4304 12.3592 63.5766 12.7612C63.7227 13.1631 63.9176 13.5042 64.1612 13.7843C64.417 14.0523 64.7093 14.2594 65.0382 14.4055C65.3671 14.5395 65.7142 14.6065 66.0796 14.6065C66.4816 14.6065 66.8409 14.5456 67.1576 14.4238C67.4864 14.2898 67.7605 14.101 67.9797 13.8574C68.2112 13.6016 68.3634 13.2971 68.4365 12.9439H70.3366C70.1417 13.9061 69.6606 14.6857 68.8933 15.2825C68.1381 15.8672 67.2063 16.1595 66.0979 16.1595ZM72.4748 15.9402V6.80503H74.1192L74.2836 8.54072C74.4907 8.12659 74.7525 7.77336 75.0692 7.48103C75.3981 7.18871 75.7818 6.96946 76.2203 6.8233C76.6588 6.66495 77.1582 6.58578 77.7185 6.58578V8.50418H77.1338C76.744 8.50418 76.3725 8.5529 76.0193 8.65034C75.6783 8.74778 75.3798 8.90613 75.124 9.12537C74.8683 9.34462 74.6673 9.64303 74.5211 10.0206C74.375 10.3982 74.3019 10.8672 74.3019 11.4274V15.9402H72.4748ZM79.5255 15.9402V6.80503H81.3526V15.9402H79.5255ZM80.439 5.03279C80.098 5.03279 79.8117 4.92317 79.5803 4.70393C79.3489 4.48468 79.2332 4.20453 79.2332 3.86349C79.2332 3.53462 79.3489 3.26665 79.5803 3.05959C79.8117 2.84034 80.098 2.73072 80.439 2.73072C80.7801 2.73072 81.0663 2.84034 81.2977 3.05959C81.5292 3.26665 81.6449 3.53462 81.6449 3.86349C81.6449 4.20453 81.5292 4.48468 81.2977 4.70393C81.0663 4.92317 80.7801 5.03279 80.439 5.03279ZM83.9652 19.9597V6.80503H85.6096L85.7923 8.23012C85.9872 7.93779 86.2308 7.66983 86.5231 7.42622C86.8154 7.17044 87.1626 6.96946 87.5645 6.8233C87.9786 6.66495 88.4598 6.58578 89.0079 6.58578C89.8848 6.58578 90.6522 6.79285 91.3099 7.20698C91.9799 7.62111 92.5036 8.19358 92.8812 8.9244C93.2588 9.64303 93.4476 10.4652 93.4476 11.3909C93.4476 12.3044 93.2588 13.1205 92.8812 13.8391C92.5036 14.5578 91.9799 15.1242 91.3099 15.5383C90.64 15.9524 89.8666 16.1595 88.9896 16.1595C88.271 16.1595 87.6376 16.0194 87.0895 15.7393C86.5414 15.4469 86.109 15.045 85.7923 14.5334V19.9597H83.9652ZM88.6973 14.57C89.2576 14.57 89.757 14.436 90.1954 14.168C90.6339 13.9 90.975 13.5285 91.2186 13.0535C91.4744 12.5663 91.6023 12.006 91.6023 11.3726C91.6023 10.7393 91.4744 10.1851 91.2186 9.71003C90.975 9.22281 90.6339 8.84523 90.1954 8.57726C89.757 8.30929 89.2576 8.17531 88.6973 8.17531C88.1248 8.17531 87.6193 8.30929 87.1808 8.57726C86.7423 8.84523 86.4013 9.22281 86.1577 9.71003C85.9141 10.1851 85.7923 10.7393 85.7923 11.3726C85.7923 12.006 85.9141 12.5663 86.1577 13.0535C86.4013 13.5285 86.7423 13.9 87.1808 14.168C87.6193 14.436 88.1248 14.57 88.6973 14.57ZM98.9874 15.9402C98.4149 15.9402 97.9155 15.8489 97.4892 15.6662C97.0629 15.4835 96.734 15.179 96.5026 14.7527C96.2712 14.3264 96.1555 13.7478 96.1555 13.017V8.33974H94.5659V6.80503H96.1555L96.3747 4.50295H97.9825V6.80503H100.577V8.33974H97.9825V13.0352C97.9825 13.559 98.086 13.9183 98.2931 14.1132C98.5123 14.2959 98.896 14.3873 99.4441 14.3873H100.467V15.9402H98.9874Z" fill="#34363B"/>
</svg>
