<svg width="92" height="29" viewBox="0 0 92 29" fill="none" xmlns="http://www.w3.org/2000/svg">
<path fill-rule="evenodd" clip-rule="evenodd" d="M9.6691 3.05975C7.39663 3.05975 5.45057 4.43808 4.6664 6.37409C3.02595 6.58624 1.56019 7.51265 0.716755 8.9277C-0.419225 10.8329 -0.160388 13.1529 1.17847 14.7784C0.548552 16.2595 0.643579 17.9521 1.48626 19.3664C2.6227 21.2724 4.8297 22.2153 6.95391 21.9043C7.96382 23.1734 9.52447 23.9403 11.2114 23.9403C13.4839 23.9403 15.4299 22.5619 16.2141 20.6259C17.8546 20.4138 19.3203 19.4874 20.1637 18.0723C21.2997 16.1671 21.0409 13.8471 19.702 12.2216C20.332 10.7405 20.2369 9.04789 19.3942 7.63363C18.2578 5.72765 16.0508 4.78469 13.9266 5.09573C12.9167 3.82656 11.356 3.05975 9.66913 3.05975M9.66913 4.66593C10.6281 4.66593 11.5274 5.03108 12.2077 5.65097C12.1558 5.67788 12.102 5.69913 12.0506 5.72786L8.36821 7.78736C7.985 8.00097 7.74777 8.39689 7.7461 8.82572L7.72344 13.6176L5.95272 12.6169V8.26419C5.95272 6.28054 7.62033 4.66596 9.6691 4.66596M14.9958 6.64705C16.1863 6.72906 17.317 7.36312 17.9573 8.43677C18.4367 9.24059 18.5602 10.1775 18.346 11.0578C18.2954 11.0273 18.249 10.9928 18.197 10.9637L14.5131 8.90418C14.3246 8.79915 14.111 8.74374 13.8936 8.74347C13.6762 8.74319 13.4624 8.79806 13.2737 8.90261L8.97735 11.2805L8.98705 9.29632L12.88 7.11918C13.5454 6.74725 14.2815 6.59785 14.9958 6.64702M4.30192 8.09323C4.30001 8.15039 4.29384 8.20659 4.29384 8.26419V12.3816C4.2938 12.5923 4.35076 12.7994 4.45907 12.9821C4.56737 13.1649 4.72322 13.3169 4.9111 13.4231L9.18634 15.8371L7.40757 16.8206L3.51296 14.645C1.73874 13.6532 1.12935 11.447 2.15376 9.72922C2.63288 8.92584 3.4081 8.354 4.30192 8.09323ZM13.473 10.1794L17.3676 12.355C19.1418 13.3468 19.7512 15.553 18.7268 17.2708C18.2477 18.0742 17.4725 18.646 16.5786 18.9068C16.5805 18.8496 16.5867 18.7934 16.5867 18.7358V14.6184C16.5868 14.4077 16.5298 14.2006 16.4215 14.0179C16.3132 13.8351 16.1573 13.6831 15.9695 13.5769L11.6942 11.1629L13.473 10.1794ZM10.4484 11.8515L11.9177 12.6812L11.9096 14.3314L10.4321 15.1486L8.96277 14.3173L8.97086 12.6687L10.4484 11.8515ZM13.1571 13.3824L14.9278 14.3831V18.7358C14.9278 20.7195 13.2602 22.3341 11.2114 22.3341C10.2524 22.3341 9.35312 21.969 8.67279 21.349C8.72474 21.3222 8.77854 21.3009 8.82992 21.2722L12.5123 19.2127C12.8955 18.9991 13.1327 18.6031 13.1344 18.1743L13.1571 13.3824ZM11.9032 15.7195L11.8935 17.7037L8.00047 19.8809C6.22624 20.8727 3.94763 20.2811 2.92324 18.5633C2.44383 17.7595 2.32027 16.8226 2.53446 15.9423C2.58509 15.9728 2.63146 16.0073 2.68348 16.0364L6.36748 18.0959C6.55594 18.2009 6.7695 18.2563 6.98693 18.2566C7.20435 18.2569 7.41806 18.202 7.60681 18.0974L11.9032 15.7195Z" fill="#34363B"/>
<path d="M32.5156 15.6396V23H30.6885V9.24497H32.3851V12.377C33.3247 10.3412 35.3605 9.03616 37.6313 9.03616V10.9415C34.7341 10.8371 32.5156 12.6381 32.5156 15.6396ZM48.3211 23V20.4943C47.512 22.217 45.8416 23.261 43.7013 23.261C40.8563 23.261 39.0032 21.6689 39.0032 19.1893C39.0032 16.5009 41.1434 15.0915 45.3195 15.0915C46.1548 15.0915 46.7812 15.1437 48.1384 15.2481V14.0997C48.1384 11.8028 46.9117 10.4456 44.8236 10.4456C42.579 10.4456 41.1695 11.8289 41.1434 14.0736H39.473C39.5513 11.0198 41.6655 8.98396 44.7975 8.98396C48.0079 8.98396 49.8872 10.8632 49.8872 14.0475V23H48.3211ZM40.7519 19.1371C40.7519 20.8075 42.0309 21.9299 43.9623 21.9299C46.5202 21.9299 48.1384 20.2594 48.1384 17.6755V16.4487C46.9639 16.3443 46.1548 16.3182 45.3979 16.3182C42.2658 16.3182 40.7519 17.2318 40.7519 19.1371ZM55.5575 23H53.7305V9.24497H55.427V11.8289C56.3405 10.0541 57.9588 8.98396 59.9163 8.98396C62.0566 8.98396 63.6487 10.1585 64.2229 12.1682C65.0842 10.2368 66.8069 8.98396 68.9732 8.98396C71.8182 8.98396 73.5931 10.8632 73.5931 14.0736V23H71.7921V14.6739C71.7921 12.0638 70.5915 10.5761 68.3729 10.5761C66.2849 10.5761 64.5883 12.4031 64.5883 14.9349V23H62.7613V14.6739C62.7613 12.0638 61.5607 10.5761 59.3421 10.5761C57.228 10.5761 55.5575 12.4031 55.5575 14.9349V23ZM90.0417 16.1094C90.0417 20.3638 87.6666 23.261 84.0125 23.261C81.9506 23.261 80.2018 22.1387 79.2622 20.1811V28.0374H77.4351V9.24497H79.1317V12.2204C80.0713 10.1846 81.8984 8.98396 84.0125 8.98396C87.6666 8.98396 90.0417 11.9072 90.0417 16.1094ZM88.1886 16.1094C88.1886 12.6381 86.3877 10.5761 83.6993 10.5761C81.1414 10.5761 79.2361 12.612 79.2361 16.1094C79.2361 19.5286 81.0892 21.6689 83.6993 21.6689C86.3877 21.6689 88.1886 19.633 88.1886 16.1094Z" fill="#34363B"/>
</svg>
