<svg width="109" height="23" viewBox="0 0 109 23" fill="none" xmlns="http://www.w3.org/2000/svg">
<path d="M10.4416 0.0597539C10.3264 0.0596394 10.2123 0.0822451 10.1058 0.126277C9.99934 0.170309 9.90262 0.234902 9.82116 0.31636C9.7397 0.397818 9.6751 0.494541 9.63106 0.600993C9.58703 0.707445 9.56442 0.821536 9.56454 0.936735C9.56437 1.11043 9.61573 1.28027 9.71213 1.42477C9.80852 1.56927 9.94562 1.68192 10.1061 1.74847C10.2665 1.81502 10.4431 1.83247 10.6135 1.79863C10.7839 1.76479 10.9404 1.68116 11.0632 1.55834C11.186 1.43552 11.2696 1.27902 11.3035 1.10865C11.3373 0.938284 11.3199 0.761706 11.2533 0.601264C11.1868 0.440822 11.0741 0.303729 10.9296 0.207336C10.7851 0.110943 10.6153 0.0595818 10.4416 0.0597539ZM7.56167 0.530435C7.44437 0.520441 7.32627 0.534352 7.21451 0.571326C6.75512 0.71923 6.50107 1.21514 6.65246 1.67625C6.68811 1.78582 6.74499 1.8873 6.81985 1.97488C6.89472 2.06247 6.98611 2.13445 7.08879 2.18672C7.19148 2.23899 7.30346 2.27053 7.41833 2.27952C7.53321 2.28852 7.64873 2.2748 7.7583 2.23916C7.86787 2.20351 7.96935 2.14663 8.05694 2.07177C8.14453 1.9969 8.21652 1.90552 8.26879 1.80284C8.32106 1.70016 8.3526 1.58818 8.3616 1.47331C8.37059 1.35844 8.35688 1.24293 8.32123 1.13336C8.26876 0.968828 8.16851 0.823633 8.03324 0.716263C7.89798 0.608892 7.73382 0.544204 7.56167 0.530435ZM13.3214 0.530435C13.163 0.543915 13.0112 0.60012 12.8822 0.693061C12.7532 0.786003 12.6519 0.912199 12.589 1.0582C12.526 1.2042 12.5039 1.36454 12.5249 1.52213C12.5459 1.67972 12.6093 1.82866 12.7083 1.95307C12.8073 2.07749 12.9382 2.17272 13.087 2.22861C13.2358 2.28451 13.3971 2.29898 13.5535 2.27048C13.7099 2.24198 13.8556 2.17158 13.9752 2.06678C14.0948 1.96198 14.1837 1.82671 14.2324 1.67538C14.3036 1.45386 14.2841 1.21313 14.1781 1.00599C14.0721 0.798853 13.8882 0.642221 13.6669 0.570456C13.5559 0.534127 13.4378 0.520516 13.3214 0.530435ZM9.21391 1.79197C9.16389 1.79027 9.11382 1.79289 9.06426 1.7998C8.96826 1.81494 8.87618 1.84886 8.7933 1.89961C8.71042 1.95036 8.63835 2.01695 8.58123 2.09557C8.5241 2.17419 8.48302 2.2633 8.46036 2.3578C8.43769 2.4523 8.43387 2.55035 8.44913 2.64633C8.46426 2.74249 8.49824 2.83472 8.5491 2.91773C8.59997 3.00074 8.66672 3.07288 8.74554 3.13003C8.82435 3.18718 8.91368 3.22821 9.00838 3.25075C9.10309 3.2733 9.20132 3.27693 9.29743 3.26143C9.39343 3.24629 9.4855 3.21237 9.56839 3.16162C9.65127 3.11086 9.72333 3.04428 9.78046 2.96566C9.83759 2.88704 9.87866 2.79793 9.90133 2.70343C9.924 2.60892 9.92781 2.51088 9.91256 2.4149C9.88539 2.24654 9.80112 2.09264 9.67391 1.97906C9.54669 1.86547 9.38427 1.7991 9.21391 1.7911M11.6709 1.7911C11.501 1.79901 11.3389 1.86529 11.2121 1.97877C11.0853 2.09224 11.0015 2.24597 10.9749 2.41403C10.9096 2.81772 11.1846 3.19705 11.5874 3.26056C11.9911 3.32407 12.3705 3.05002 12.4357 2.6472C12.466 2.45319 12.4182 2.25508 12.3028 2.09625C12.1873 1.93742 12.0136 1.83082 11.8197 1.7998C11.7702 1.7926 11.7201 1.78969 11.6701 1.7911M4.78966 1.8868C4.61511 1.8923 4.44624 1.9502 4.30504 2.05297C4.13438 2.1764 4.01372 2.35701 3.96504 2.56192C3.91637 2.76684 3.94292 2.98242 4.03985 3.1694C4.13678 3.35638 4.29765 3.50233 4.49316 3.58067C4.68868 3.65901 4.90582 3.66452 5.10506 3.5962C5.30429 3.52789 5.47236 3.39029 5.57866 3.20846C5.68495 3.02664 5.7224 2.81268 5.68419 2.60557C5.64597 2.39845 5.53464 2.21194 5.37045 2.08002C5.20627 1.94809 5.00016 1.87952 4.78966 1.8868ZM16.0934 1.8868C15.9051 1.87903 15.7193 1.93222 15.5635 2.03846C15.4078 2.14471 15.2905 2.29834 15.2291 2.47655C15.1676 2.65475 15.1653 2.84803 15.2224 3.02767C15.2795 3.20731 15.3931 3.36374 15.5462 3.47372C15.7349 3.60415 15.9671 3.65564 16.1933 3.61717C16.4194 3.5787 16.6215 3.45333 16.7565 3.26784C16.8914 3.08234 16.9485 2.85143 16.9155 2.62444C16.8825 2.39744 16.762 2.19235 16.5798 2.05297C16.4381 1.94987 16.2686 1.89195 16.0934 1.8868ZM6.72641 2.5715C6.6276 2.57749 6.5312 2.60448 6.44364 2.65068C6.35702 2.69487 6.27997 2.75572 6.2169 2.82973C6.15382 2.90374 6.10597 2.98947 6.07606 3.082C6.04616 3.17453 6.0348 3.27205 6.04264 3.36897C6.05047 3.4659 6.07735 3.56032 6.12172 3.64685C6.1655 3.73353 6.226 3.81069 6.29973 3.87389C6.37346 3.93708 6.45897 3.98506 6.55133 4.01507C6.64369 4.04507 6.74107 4.0565 6.83787 4.0487C6.93467 4.04091 7.02896 4.01403 7.11533 3.96963C7.28999 3.8803 7.42219 3.72546 7.483 3.53895C7.54381 3.35243 7.5283 3.14943 7.43986 2.97432C7.37388 2.84434 7.27096 2.73676 7.14402 2.66509C7.01708 2.59342 6.8718 2.56086 6.72641 2.5715ZM14.1593 2.5715C14.0139 2.56086 13.8686 2.59342 13.7417 2.66509C13.6148 2.73676 13.5118 2.84434 13.4459 2.97432C13.4017 3.06091 13.375 3.15536 13.3674 3.25227C13.3597 3.34917 13.3713 3.44663 13.4013 3.53907C13.4314 3.63152 13.4794 3.71712 13.5426 3.791C13.6057 3.86488 13.6829 3.92558 13.7695 3.96963C13.8559 4.0142 13.9502 4.04123 14.0471 4.04916C14.1439 4.05709 14.2414 4.04577 14.3338 4.01584C14.4263 3.98591 14.5119 3.93798 14.5857 3.87479C14.6596 3.81161 14.7201 3.73444 14.764 3.64772C14.8085 3.56115 14.8355 3.46665 14.8434 3.36963C14.8513 3.27261 14.84 3.17499 14.8101 3.08236C14.7802 2.98973 14.7323 2.90391 14.6691 2.82983C14.606 2.75576 14.5288 2.69487 14.4421 2.65068C14.3537 2.60669 14.2577 2.57983 14.1593 2.5715ZM10.4416 3.15964C10.2782 3.15987 10.1215 3.22481 10.0059 3.34025C9.89031 3.4557 9.82515 3.61224 9.82469 3.77561C9.82469 4.11753 10.1005 4.39333 10.4416 4.39333C10.6052 4.3931 10.7621 4.32792 10.8778 4.2121C10.9935 4.09628 11.0584 3.93929 11.0584 3.77561C11.0582 3.61209 10.9931 3.45532 10.8775 3.33969C10.7619 3.22406 10.6051 3.15987 10.4416 3.15964ZM8.41606 3.48938C8.33369 3.4826 8.2508 3.49267 8.17245 3.51896C8.01746 3.56993 7.88894 3.68015 7.81493 3.82555C7.74093 3.97095 7.72745 4.13972 7.77744 4.29502C7.82824 4.45015 7.93839 4.57888 8.08382 4.65305C8.22924 4.72723 8.39811 4.74083 8.55353 4.69087C8.709 4.64043 8.83813 4.53044 8.91266 4.38498C8.98718 4.23952 9.00102 4.07046 8.95115 3.91482C8.91374 3.79911 8.84301 3.69702 8.74782 3.62134C8.65264 3.54565 8.53723 3.49975 8.41606 3.48938ZM12.467 3.48938C12.3556 3.49858 12.2488 3.53784 12.1579 3.60299C12.0671 3.66813 11.9956 3.75672 11.9511 3.85929C11.9066 3.96186 11.8908 4.07458 11.9054 4.18543C11.92 4.29628 11.9643 4.40109 12.0338 4.48871C12.1032 4.57632 12.1952 4.64344 12.2998 4.68292C12.4044 4.7224 12.5177 4.73275 12.6277 4.71287C12.7378 4.69298 12.8403 4.64362 12.9245 4.57003C13.0087 4.49644 13.0713 4.40139 13.1057 4.29502C13.1557 4.13972 13.1422 3.97095 13.0682 3.82555C12.9942 3.68015 12.8656 3.56993 12.7107 3.51896C12.6323 3.49267 12.5494 3.4826 12.467 3.48938ZM2.7372 4.00095C2.59316 3.99572 2.45005 4.02599 2.32048 4.08911C2.1909 4.15223 2.07884 4.24624 1.99417 4.36288C1.85781 4.55148 1.80183 4.78647 1.83854 5.01629C1.87524 5.24611 2.00161 5.45198 2.18993 5.58874C2.58146 5.87323 3.1296 5.7871 3.41323 5.39472C3.70035 5.00321 3.61422 4.45336 3.22182 4.16799C3.08072 4.06491 2.91185 4.0067 2.7372 4.00095ZM18.1485 4.00095C17.973 4.00618 17.8031 4.06441 17.6613 4.16799C17.4911 4.29119 17.3708 4.47137 17.3223 4.67576C17.2738 4.88016 17.3002 5.09518 17.3968 5.28172C17.4935 5.46826 17.6539 5.61391 17.8488 5.69219C18.0438 5.77046 18.2604 5.77615 18.4592 5.70823C18.658 5.64031 18.8258 5.50328 18.9321 5.32208C19.0384 5.14087 19.0761 4.92753 19.0384 4.72087C19.0006 4.51421 18.89 4.32796 18.7265 4.19599C18.563 4.06403 18.3576 3.99513 18.1477 4.00182M4.73659 4.05315C4.63941 4.05327 4.54322 4.07255 4.45349 4.10987C4.36377 4.14719 4.28228 4.20183 4.21369 4.27065C4.07463 4.40955 3.99634 4.59794 3.99602 4.79448C3.99569 4.99102 4.07335 5.17967 4.21195 5.31903C4.35131 5.45743 4.53975 5.5351 4.73616 5.5351C4.93257 5.5351 5.12101 5.45743 5.26037 5.31903C5.39877 5.17968 5.47645 4.99124 5.47645 4.79484C5.47645 4.59844 5.39877 4.41001 5.26037 4.27065C5.19167 4.20172 5.11004 4.14702 5.02016 4.1097C4.93028 4.07238 4.83391 4.05316 4.73659 4.05315ZM16.1483 4.05315C16.0506 4.05293 15.954 4.07204 15.8638 4.10937C15.7736 4.1467 15.6917 4.20151 15.6227 4.27065C15.4839 4.40978 15.4059 4.5983 15.4059 4.79484C15.4059 4.99138 15.4839 5.1799 15.6227 5.31903C15.762 5.45764 15.9505 5.53546 16.147 5.53546C16.3434 5.53546 16.5319 5.45764 16.6712 5.31903C16.7402 5.25031 16.795 5.16863 16.8324 5.07867C16.8698 4.98872 16.889 4.89226 16.889 4.79484C16.889 4.69743 16.8698 4.60097 16.8324 4.51101C16.795 4.42105 16.7402 4.33937 16.6712 4.27065C16.6026 4.20183 16.5211 4.14719 16.4314 4.10987C16.3416 4.07255 16.2454 4.05327 16.1483 4.05315ZM6.46887 4.44466C6.34573 4.44805 6.22651 4.48869 6.12694 4.56124C6.00565 4.6614 5.92713 4.80405 5.90741 4.9601C5.88769 5.11615 5.92824 5.27385 6.0208 5.40103C6.11336 5.52821 6.25095 5.6153 6.40551 5.64452C6.56008 5.67374 6.71997 5.6429 6.85257 5.55829C6.91795 5.51078 6.97333 5.45085 7.01554 5.38193C7.05775 5.31301 7.08596 5.23645 7.09857 5.15662C7.11117 5.07679 7.10792 4.99526 7.089 4.91669C7.07008 4.83812 7.03586 4.76405 6.9883 4.6987C6.92965 4.61648 6.85147 4.55013 6.76079 4.50563C6.67012 4.46113 6.5698 4.44075 6.46887 4.44466ZM14.4142 4.44466C14.3134 4.44065 14.2131 4.46177 14.1225 4.50611C14.0318 4.55046 13.9536 4.61664 13.8948 4.6987C13.6947 4.9745 13.7556 5.35992 14.0305 5.55829C14.0959 5.60612 14.1701 5.64056 14.2489 5.65962C14.3276 5.67869 14.4094 5.68202 14.4894 5.66941C14.5695 5.6568 14.6462 5.6285 14.7153 5.58614C14.7844 5.54377 14.8444 5.48819 14.8919 5.42256C14.9579 5.33208 14.998 5.2253 15.0079 5.11371C15.0178 5.00213 14.997 4.88997 14.9479 4.7893C14.8988 4.68862 14.8231 4.60326 14.7291 4.54238C14.6351 4.4815 14.5262 4.44828 14.4142 4.44466ZM9.5889 4.45162C9.55395 4.45044 9.51897 4.45277 9.48449 4.45858C9.38427 4.47463 9.29106 4.52003 9.21663 4.58905C9.14221 4.65806 9.08991 4.74759 9.06636 4.84631C9.0428 4.94504 9.04905 5.04853 9.0843 5.14371C9.11955 5.23889 9.18223 5.32148 9.26441 5.38104C9.34659 5.44061 9.44459 5.47448 9.54601 5.47837C9.64744 5.48226 9.74774 5.45599 9.83424 5.40289C9.92074 5.34979 9.98956 5.27224 10.032 5.18004C10.0744 5.08784 10.0886 4.98513 10.0727 4.88489C10.0543 4.76784 9.996 4.66074 9.90767 4.58177C9.81934 4.5028 9.7064 4.45681 9.58803 4.45162M11.2933 4.45162C11.1754 4.4574 11.0631 4.50365 10.9753 4.58257C10.8875 4.66149 10.8296 4.76826 10.8113 4.88489C10.7953 4.9852 10.8095 5.08801 10.8519 5.18029C10.8944 5.27256 10.9633 5.35017 11.0499 5.40328C11.1365 5.45638 11.2369 5.4826 11.3384 5.47862C11.4399 5.47463 11.538 5.44062 11.6201 5.38089C11.7023 5.32116 11.7649 5.23839 11.8 5.14306C11.8351 5.04774 11.8411 4.94414 11.8173 4.84539C11.7935 4.74664 11.7409 4.65717 11.6662 4.58832C11.5915 4.51946 11.4981 4.47431 11.3977 4.45858C11.3633 4.45277 11.3283 4.45044 11.2933 4.45162ZM7.86097 4.99364C7.7918 4.99884 7.72436 5.01777 7.66259 5.04932C7.54139 5.11111 7.44967 5.21847 7.40758 5.34784C7.36549 5.4772 7.37647 5.61798 7.43812 5.73925C7.46856 5.79964 7.51062 5.85341 7.56191 5.89749C7.61319 5.94157 7.67268 5.97508 7.73695 5.9961C7.80123 6.01712 7.86902 6.02523 7.93644 6.01997C8.00386 6.01472 8.06958 5.99619 8.12981 5.96546C8.2514 5.90312 8.34341 5.79525 8.38579 5.66536C8.42816 5.53546 8.41747 5.39409 8.35603 5.27205C8.31007 5.18208 8.23858 5.10767 8.15051 5.05814C8.06245 5.00862 7.96173 4.98618 7.86097 4.99364ZM13.0221 4.99364C12.9214 4.98618 12.8207 5.00862 12.7326 5.05814C12.6445 5.10767 12.573 5.18208 12.5271 5.27205C12.4962 5.33208 12.4775 5.3976 12.472 5.46487C12.4665 5.53214 12.4743 5.59983 12.495 5.66407C12.5157 5.72832 12.5488 5.78785 12.5926 5.83927C12.6363 5.89069 12.6897 5.93297 12.7498 5.96372C12.81 5.99478 12.8758 6.01362 12.9433 6.01915C13.0109 6.02467 13.0788 6.01677 13.1433 5.99591C13.2078 5.97504 13.2674 5.94162 13.3189 5.89757C13.3704 5.85352 13.4127 5.79971 13.4433 5.73925C13.4737 5.6791 13.492 5.61353 13.4971 5.5463C13.5023 5.47907 13.4941 5.4115 13.4731 5.34743C13.4521 5.28336 13.4186 5.22405 13.3747 5.17291C13.3308 5.12176 13.2772 5.07976 13.217 5.04932C13.1563 5.01821 13.0901 4.99929 13.0221 4.99364ZM10.4416 5.44344C10.3291 5.4439 10.2214 5.48878 10.1418 5.5683C10.0623 5.64783 10.0174 5.75555 10.017 5.86801C10.0166 5.95248 10.0414 6.03514 10.0881 6.10551C10.1348 6.17588 10.2014 6.23079 10.2793 6.26328C10.3573 6.29576 10.4432 6.30435 10.526 6.28795C10.6089 6.27156 10.685 6.23092 10.7448 6.1712C10.8045 6.11147 10.8451 6.03535 10.8615 5.95249C10.8779 5.86964 10.8693 5.78377 10.8368 5.70581C10.8044 5.62784 10.7494 5.56127 10.6791 5.51456C10.6087 5.46785 10.526 5.4431 10.4416 5.44344ZM9.04686 5.67052C8.99034 5.66654 8.9336 5.67363 8.8798 5.6914C8.77273 5.72601 8.6838 5.80174 8.63257 5.90192C8.58133 6.0021 8.57199 6.11853 8.60661 6.22559C8.64122 6.33266 8.71695 6.42159 8.81713 6.47282C8.91732 6.52405 9.03375 6.53339 9.14082 6.49878C9.24813 6.4639 9.33723 6.3879 9.38861 6.28744C9.43998 6.18699 9.44943 6.07026 9.41489 5.96285C9.38889 5.88329 9.34004 5.81314 9.27444 5.76116C9.20884 5.70917 9.12938 5.67765 9.04598 5.67052M11.8354 5.67052C11.7525 5.67814 11.6736 5.70989 11.6085 5.76184C11.5434 5.81379 11.4949 5.88367 11.4691 5.96285C11.4344 6.06992 11.4435 6.18635 11.4944 6.28675C11.5452 6.38715 11.6337 6.46336 11.7406 6.49878C11.7936 6.51609 11.8495 6.52279 11.9051 6.51849C11.9607 6.51419 12.0149 6.49899 12.0646 6.47374C12.1144 6.4485 12.1586 6.4137 12.1949 6.37135C12.2312 6.32899 12.2588 6.27991 12.2761 6.2269C12.2934 6.17388 12.3001 6.11798 12.2958 6.06238C12.2915 6.00678 12.2763 5.95256 12.251 5.90284C12.2258 5.85311 12.191 5.80885 12.1486 5.77257C12.1063 5.73629 12.0572 5.70871 12.0042 5.6914C11.9498 5.6734 11.8925 5.66631 11.8354 5.67052ZM5.02284 5.93152C4.92199 5.92752 4.82172 5.94863 4.73106 5.99298C4.64039 6.03732 4.56216 6.1035 4.50342 6.18557C4.43158 6.28432 4.39066 6.40216 4.38586 6.52418C4.38105 6.6462 4.41257 6.76689 4.47642 6.87098C4.54027 6.97507 4.63358 7.05787 4.74453 7.10889C4.85548 7.1599 4.97908 7.17684 5.09966 7.15756C5.22025 7.13827 5.33239 7.08364 5.4219 7.00057C5.5114 6.9175 5.57424 6.80973 5.60244 6.69092C5.63065 6.57211 5.62295 6.4476 5.58033 6.33317C5.53771 6.21873 5.46209 6.11953 5.36303 6.04811C5.2643 5.97575 5.14605 5.93482 5.02371 5.93065M15.8611 5.93065C15.738 5.93404 15.6188 5.97469 15.5192 6.04724C15.4534 6.09463 15.3977 6.15454 15.3552 6.22355C15.3126 6.29255 15.2842 6.36928 15.2714 6.44932C15.2586 6.52936 15.2618 6.61114 15.2807 6.68995C15.2997 6.76876 15.334 6.84306 15.3817 6.90856C15.4293 6.9742 15.4893 7.02983 15.5583 7.07228C15.6273 7.11474 15.704 7.14318 15.7841 7.15598C15.8641 7.16879 15.9459 7.16571 16.0247 7.14691C16.1035 7.12812 16.1779 7.09399 16.2435 7.04646C16.3092 6.99893 16.3648 6.93893 16.4073 6.86991C16.4497 6.80088 16.4782 6.72416 16.491 6.64414C16.5038 6.56412 16.5007 6.48236 16.4819 6.40353C16.4631 6.3247 16.429 6.25034 16.3814 6.1847C16.3227 6.10235 16.2444 6.03592 16.1535 5.99141C16.0627 5.94691 15.9622 5.9266 15.8611 5.93065ZM6.47845 6.02288C6.34222 6.02368 6.21171 6.07769 6.11476 6.17339C6.0186 6.26964 5.96458 6.40013 5.96458 6.53619C5.96458 6.67225 6.0186 6.80274 6.11476 6.89899C6.16245 6.94686 6.21913 6.98485 6.28154 7.01077C6.34395 7.03669 6.41087 7.05004 6.47845 7.05004C6.54602 7.05004 6.61294 7.03669 6.67535 7.01077C6.73776 6.98485 6.79444 6.94686 6.84213 6.89899C6.89012 6.85141 6.92825 6.79483 6.95432 6.73248C6.98039 6.67014 6.99389 6.60326 6.99406 6.53568C6.99422 6.4681 6.98103 6.40116 6.95526 6.33869C6.92949 6.27622 6.89163 6.21946 6.84387 6.17165C6.74621 6.07617 6.61503 6.02276 6.47845 6.02288ZM14.4047 6.02288C14.2684 6.02368 14.1379 6.07769 14.041 6.17339C13.9931 6.22087 13.955 6.27738 13.929 6.33965C13.9031 6.40192 13.8897 6.46872 13.8897 6.53619C13.8897 6.60366 13.9031 6.67045 13.929 6.73272C13.955 6.795 13.9931 6.8515 14.041 6.89899C14.1372 6.99515 14.2677 7.04917 14.4038 7.04917C14.5399 7.04917 14.6704 6.99515 14.7666 6.89899C14.863 6.80297 14.9173 6.67261 14.9177 6.53655C14.918 6.40049 14.8643 6.26987 14.7683 6.17339C14.6714 6.07769 14.5409 6.02368 14.4047 6.02288ZM3.30622 6.0977C3.16091 6.08827 3.01602 6.12145 2.88929 6.19315C2.76256 6.26486 2.65951 6.37198 2.59277 6.50139C2.50383 6.67618 2.48796 6.87914 2.54866 7.06563C2.60935 7.25212 2.74164 7.40686 2.91643 7.49582C3.09134 7.58489 3.29447 7.60083 3.48114 7.54013C3.6678 7.47944 3.82271 7.34708 3.91178 7.17217C4.00085 6.99727 4.01679 6.79415 3.95609 6.60749C3.89539 6.42084 3.76303 6.26594 3.58812 6.17687C3.50083 6.13079 3.40473 6.1038 3.30622 6.0977ZM17.5786 6.0977C17.4799 6.10591 17.3837 6.13278 17.295 6.17687C17.1644 6.2432 17.0565 6.34676 16.9848 6.47445C16.913 6.60214 16.8808 6.74823 16.8921 6.89423C16.9035 7.04024 16.9578 7.17961 17.0484 7.29472C17.1389 7.40982 17.2616 7.49549 17.4008 7.54088C17.5401 7.58628 17.6896 7.58937 17.8306 7.54975C17.9716 7.51014 18.0977 7.4296 18.1929 7.31833C18.2881 7.20706 18.3482 7.07005 18.3656 6.92464C18.3829 6.77922 18.3567 6.63193 18.2903 6.50139C18.2246 6.37153 18.122 6.26396 17.9954 6.19215C17.8688 6.12034 17.7238 6.08749 17.5786 6.0977ZM7.70349 6.32825C7.61937 6.33173 7.53807 6.35953 7.46944 6.4083C7.3886 6.47816 7.33695 6.57583 7.3247 6.68197C7.31246 6.78811 7.34051 6.89498 7.40332 6.98142C7.46613 7.06786 7.5591 7.12756 7.66383 7.14871C7.76857 7.16986 7.87743 7.15091 7.96885 7.09561C8.05917 7.02917 8.11968 6.92982 8.13726 6.81909C8.15485 6.70836 8.12811 6.59515 8.06282 6.504C8.02249 6.44711 7.96856 6.40122 7.90595 6.37052C7.84333 6.33982 7.77403 6.32529 7.70436 6.32825M13.1805 6.32825C13.1109 6.32583 13.0417 6.3405 12.9791 6.37098C12.9164 6.40147 12.8622 6.44684 12.8212 6.50313C12.7883 6.54831 12.7647 6.59954 12.7518 6.65387C12.7388 6.70821 12.7367 6.76457 12.7456 6.81971C12.7545 6.87486 12.7742 6.9277 12.8036 6.9752C12.833 7.0227 12.8715 7.06392 12.9169 7.09648C13.0081 7.16204 13.1215 7.18894 13.2324 7.17135C13.3434 7.15375 13.4429 7.09308 13.5094 7.00252C13.5754 6.91107 13.6025 6.79719 13.5847 6.68582C13.5669 6.57445 13.5057 6.47465 13.4145 6.4083C13.3457 6.35937 13.2649 6.33156 13.1805 6.32825ZM9.8621 6.38742C9.83884 6.38624 9.81552 6.38741 9.79249 6.3909C9.70352 6.4043 9.62311 6.45138 9.56789 6.52242C9.51267 6.59345 9.48687 6.68299 9.49583 6.77251C9.50479 6.86204 9.54782 6.94469 9.61602 7.00337C9.68422 7.06206 9.77237 7.09228 9.86223 7.08778C9.95209 7.08329 10.0368 7.04443 10.0988 6.97923C10.1608 6.91404 10.1954 6.82751 10.1954 6.73754C10.1953 6.64757 10.1607 6.56105 10.0987 6.49588C10.0367 6.43071 9.95196 6.39187 9.8621 6.38742ZM11.021 6.38742C10.9405 6.39068 10.8636 6.42178 10.8035 6.47541C10.7433 6.52904 10.7037 6.60187 10.6913 6.68148C10.6783 6.77295 10.7014 6.86587 10.7556 6.94068C10.8098 7.01548 10.8909 7.06635 10.9819 7.08256C11.0714 7.09251 11.1613 7.06761 11.233 7.01302C11.3047 6.95844 11.3526 6.87836 11.3668 6.7894C11.381 6.70043 11.3604 6.60941 11.3093 6.53522C11.2582 6.46102 11.1805 6.40934 11.0924 6.3909C11.0688 6.38729 11.0449 6.38613 11.021 6.38742ZM1.27202 6.67017C1.05507 6.6888 0.85279 6.78738 0.704453 6.94678C0.556117 7.10618 0.472314 7.31502 0.46932 7.53274C0.466327 7.75045 0.544355 7.96151 0.688253 8.12493C0.832151 8.28835 1.03165 8.39246 1.248 8.41704C1.46436 8.44163 1.68213 8.38493 1.85903 8.25797C2.03592 8.131 2.15932 7.94283 2.20526 7.72999C2.25119 7.51716 2.21639 7.29484 2.1076 7.10623C1.99881 6.91761 1.8238 6.77615 1.61657 6.70932C1.50557 6.67299 1.38839 6.66025 1.27202 6.67017ZM19.6111 6.6693C19.4948 6.6591 19.3776 6.67242 19.2665 6.70845C18.8054 6.85897 18.5522 7.35488 18.7019 7.81599C18.8533 8.2771 19.3466 8.52941 19.8069 8.37802C20.0007 8.3167 20.1671 8.18988 20.2777 8.01929C20.3883 7.84871 20.4361 7.64498 20.413 7.44301C20.3899 7.24104 20.2972 7.05341 20.1509 6.91225C20.0046 6.77109 19.8138 6.68521 19.6111 6.6693ZM8.68752 6.7563C8.64026 6.75913 8.59408 6.77156 8.55179 6.79285C8.46941 6.83508 8.40708 6.90818 8.3784 6.99619C8.34971 7.08421 8.35699 7.17999 8.39866 7.26266C8.41939 7.30373 8.44806 7.34028 8.483 7.3702C8.51794 7.40012 8.55848 7.42282 8.60225 7.43698C8.64602 7.45114 8.69217 7.45648 8.73802 7.45269C8.78386 7.4489 8.82851 7.43606 8.86936 7.41491C8.91029 7.39426 8.94672 7.36572 8.97659 7.33094C9.00645 7.29617 9.02915 7.25583 9.04337 7.21226C9.0576 7.16868 9.06308 7.12273 9.0595 7.07703C9.05592 7.03133 9.04334 6.98679 9.02249 6.94597C8.99164 6.88475 8.94338 6.834 8.88379 6.80011C8.82419 6.76621 8.75592 6.75154 8.68752 6.7563ZM12.1956 6.75543C12.1275 6.75044 12.0594 6.76559 11.9998 6.799C11.9403 6.83242 11.8919 6.88262 11.8606 6.94336C11.8395 6.98426 11.8267 7.02895 11.823 7.07484C11.8193 7.12072 11.8247 7.16689 11.8389 7.21067C11.8532 7.25445 11.8759 7.29496 11.906 7.32987C11.936 7.36478 11.9726 7.39339 12.0137 7.41404C12.0546 7.43489 12.0991 7.44746 12.1448 7.45105C12.1905 7.45463 12.2365 7.44915 12.28 7.43492C12.3236 7.42069 12.364 7.398 12.3987 7.36814C12.4335 7.33827 12.4621 7.30184 12.4827 7.26092C12.5037 7.22005 12.5164 7.17544 12.52 7.12965C12.5237 7.08385 12.5182 7.03779 12.504 6.99412C12.4898 6.95044 12.467 6.91002 12.4371 6.87517C12.4072 6.84033 12.3706 6.81176 12.3296 6.79111C12.2878 6.77005 12.2423 6.75849 12.1956 6.75543ZM6.70988 7.35053C6.60819 7.34729 6.50873 7.38068 6.42958 7.4446C6.35044 7.50852 6.29688 7.59874 6.27865 7.69883C6.26043 7.79892 6.27875 7.90222 6.33028 7.98994C6.38181 8.07765 6.46313 8.14395 6.55943 8.17677C6.65573 8.20958 6.76061 8.20672 6.85499 8.16872C6.94936 8.13071 7.02695 8.06009 7.07363 7.9697C7.12031 7.87931 7.13298 7.77516 7.10934 7.67621C7.08569 7.57726 7.0273 7.49009 6.9448 7.43057C6.87592 7.38165 6.7943 7.35383 6.70988 7.35053ZM14.175 7.35053C14.0903 7.35367 14.0083 7.38149 13.9392 7.43057C13.8941 7.46326 13.8558 7.50454 13.8267 7.55202C13.7975 7.59951 13.778 7.65229 13.7693 7.70732C13.7606 7.76236 13.7628 7.81857 13.7758 7.87275C13.7888 7.92693 13.8124 7.97801 13.8452 8.02306C13.8759 8.07285 13.9166 8.11577 13.9647 8.14914C14.0128 8.1825 14.0672 8.20559 14.1246 8.21696C14.182 8.22834 14.2411 8.22775 14.2983 8.21523C14.3554 8.20272 14.4094 8.17855 14.4568 8.14423C14.5042 8.10992 14.544 8.06619 14.5737 8.0158C14.6035 7.9654 14.6225 7.90941 14.6296 7.85133C14.6367 7.79325 14.6318 7.73433 14.6151 7.67825C14.5984 7.62217 14.5703 7.57014 14.5326 7.5254C14.4922 7.4688 14.4384 7.42316 14.3759 7.39262C14.3135 7.36209 14.2444 7.34762 14.175 7.35053ZM5.48658 7.44014C5.38549 7.43266 5.28445 7.45527 5.19619 7.50512C5.10794 7.55498 5.03642 7.62985 4.99065 7.72029C4.96005 7.78048 4.94163 7.84612 4.93644 7.91344C4.93125 7.98077 4.9394 8.04845 4.96041 8.11262C4.98143 8.17679 5.0149 8.23619 5.0589 8.2874C5.10291 8.33862 5.15659 8.38065 5.21686 8.41108C5.2767 8.44189 5.34203 8.46056 5.4091 8.46603C5.47618 8.4715 5.54367 8.46366 5.60771 8.44297C5.67174 8.42227 5.73106 8.38912 5.78224 8.34543C5.83342 8.30173 5.87546 8.24835 5.90595 8.18836C5.96798 8.06662 5.97919 7.92523 5.93711 7.79524C5.89502 7.66524 5.80309 7.55725 5.68147 7.49495C5.62071 7.46414 5.5545 7.44552 5.48658 7.44014ZM15.3983 7.44014C15.3298 7.44529 15.2629 7.46392 15.2016 7.49495C15.08 7.55725 14.9881 7.66524 14.946 7.79524C14.9039 7.92523 14.9151 8.06662 14.9772 8.18836C15.0391 8.30941 15.1465 8.40094 15.2759 8.44286C15.4052 8.48478 15.546 8.47366 15.6671 8.41195C15.7274 8.38137 15.781 8.33919 15.8249 8.28784C15.8688 8.23649 15.9021 8.17698 15.923 8.11272C15.9438 8.04846 15.9518 7.98072 15.9464 7.91338C15.941 7.84604 15.9224 7.78042 15.8916 7.72029C15.846 7.63028 15.7749 7.5557 15.6872 7.50588C15.5994 7.45605 15.4989 7.43319 15.3983 7.44014ZM7.74786 7.45493C7.70137 7.45478 7.65533 7.46393 7.61244 7.48187C7.56955 7.4998 7.53069 7.52614 7.49815 7.55933C7.46565 7.5918 7.43989 7.63038 7.42237 7.67285C7.40485 7.71532 7.39592 7.76084 7.39608 7.80678C7.39624 7.85272 7.4055 7.89818 7.42331 7.94052C7.44113 7.98287 7.46716 8.02127 7.49989 8.05351C7.53225 8.08612 7.57074 8.11201 7.61315 8.12968C7.65556 8.14735 7.70105 8.15645 7.74699 8.15645C7.79293 8.15645 7.83842 8.14735 7.88083 8.12968C7.92324 8.11201 7.96173 8.08612 7.99409 8.05351C8.02684 8.02114 8.05284 7.98259 8.07059 7.94011C8.08833 7.89762 8.09747 7.85203 8.09747 7.80598C8.09747 7.75994 8.08833 7.71435 8.07059 7.67186C8.05284 7.62938 8.02684 7.59083 7.99409 7.55846C7.96188 7.52584 7.92356 7.4999 7.8813 7.48214C7.83905 7.46437 7.7937 7.45512 7.74786 7.45493ZM13.137 7.45667C13.0908 7.45629 13.0451 7.46509 13.0023 7.48257C12.9596 7.50005 12.9208 7.52584 12.8882 7.55846C12.8556 7.591 12.8298 7.62968 12.8123 7.67227C12.7947 7.71485 12.7858 7.76048 12.7861 7.80653C12.7863 7.85258 12.7957 7.89812 12.8137 7.94051C12.8316 7.9829 12.8578 8.02131 12.8908 8.05351C12.9231 8.08586 12.9615 8.11153 13.0037 8.12904C13.046 8.14656 13.0913 8.15557 13.137 8.15557C13.1827 8.15557 13.228 8.14656 13.2703 8.12904C13.3125 8.11153 13.3509 8.08586 13.3832 8.05351C13.416 8.02114 13.442 7.98259 13.4597 7.94011C13.4775 7.89762 13.4866 7.85203 13.4866 7.80598C13.4866 7.75994 13.4775 7.71435 13.4597 7.67186C13.442 7.62938 13.416 7.59083 13.3832 7.55846C13.3509 7.52616 13.3125 7.50054 13.2702 7.48307C13.228 7.46561 13.1827 7.45664 13.137 7.45667ZM3.99443 7.80816C3.85272 7.82024 3.71956 7.88098 3.61755 7.98007C3.51553 8.07916 3.45095 8.2105 3.43476 8.35179C3.41857 8.49308 3.45177 8.63562 3.52873 8.75522C3.60569 8.87482 3.72166 8.9641 3.85696 9.00792C3.9338 9.03305 4.01484 9.04278 4.09544 9.03657C4.17604 9.03036 4.25463 9.00832 4.3267 8.97172C4.39878 8.93512 4.46294 8.88467 4.51551 8.82325C4.56807 8.76184 4.60802 8.69066 4.63305 8.6138C4.65828 8.5368 4.66804 8.45558 4.66178 8.3748C4.65552 8.29402 4.63336 8.21527 4.59657 8.14307C4.55979 8.07088 4.5091 8.00666 4.44743 7.95412C4.38575 7.90157 4.3143 7.86172 4.23718 7.83687C4.15876 7.81088 4.07674 7.80111 3.99443 7.80816ZM16.8878 7.80816C16.8055 7.80111 16.7226 7.81088 16.6442 7.83687C16.5673 7.86189 16.4961 7.90181 16.4346 7.95436C16.3732 8.0069 16.3226 8.07103 16.286 8.1431C16.2493 8.21516 16.2272 8.29374 16.2208 8.37436C16.2145 8.45497 16.2242 8.53604 16.2492 8.61293C16.2742 8.68982 16.3141 8.76103 16.3667 8.8225C16.4192 8.88396 16.4834 8.93447 16.5554 8.97115C16.6275 9.00783 16.7061 9.02995 16.7867 9.03626C16.8673 9.04257 16.9484 9.03294 17.0253 9.00792C17.1807 8.95748 17.3099 8.84748 17.3844 8.70202C17.4589 8.55656 17.4728 8.3875 17.4229 8.23186C17.3852 8.11648 17.3143 8.01476 17.2192 7.9394C17.124 7.86405 17.0088 7.8184 16.8878 7.80816ZM7.07096 8.42152C7.00218 8.41648 6.93346 8.43198 6.87351 8.46606C6.81356 8.50014 6.76509 8.55126 6.73424 8.61293C6.71353 8.65371 6.70106 8.69818 6.69755 8.74378C6.69404 8.78939 6.69955 8.83524 6.71377 8.87871C6.72799 8.92218 6.75065 8.96242 6.78044 8.99713C6.81022 9.03184 6.84656 9.06034 6.88737 9.081C6.92802 9.10226 6.9725 9.11522 7.01821 9.11911C7.06392 9.123 7.10994 9.11774 7.1536 9.10365C7.19726 9.08955 7.23767 9.06691 7.27248 9.03703C7.30728 9.00715 7.33579 8.97063 7.35633 8.92962C7.37732 8.88875 7.39 8.84414 7.39366 8.79835C7.39731 8.75256 7.39186 8.70649 7.37763 8.66282C7.36339 8.61914 7.34065 8.57872 7.31071 8.54387C7.28078 8.50903 7.24424 8.48046 7.2032 8.45981C7.16211 8.43837 7.11715 8.42535 7.07096 8.42152ZM13.8104 8.42152C13.7643 8.42508 13.7193 8.4378 13.6782 8.45894C13.637 8.47959 13.6004 8.50819 13.5704 8.5431C13.5404 8.57801 13.5176 8.61853 13.5033 8.66231C13.4891 8.70608 13.4837 8.75225 13.4874 8.79814C13.4911 8.84402 13.5039 8.88871 13.525 8.92962C13.5676 9.01146 13.6407 9.07324 13.7284 9.10158C13.8162 9.12992 13.9116 9.12252 13.994 9.081C14.035 9.06035 14.0716 9.03178 14.1015 8.99693C14.1314 8.96209 14.1542 8.92166 14.1684 8.87799C14.1827 8.83431 14.1881 8.78825 14.1845 8.74246C14.1808 8.69667 14.1681 8.65205 14.1471 8.61119C14.116 8.54984 14.0674 8.49908 14.0075 8.46533C13.9476 8.43157 13.879 8.41633 13.8104 8.42152ZM2.4379 8.49896C2.26734 8.50632 2.10457 8.57246 1.97723 8.68616C1.84988 8.79987 1.7658 8.95412 1.73924 9.12276C1.72401 9.21887 1.72789 9.31703 1.75067 9.41163C1.77344 9.50624 1.81467 9.59541 1.87197 9.67406C1.92928 9.7527 2.00154 9.81926 2.08462 9.86992C2.1677 9.92058 2.25996 9.95435 2.35611 9.96929C2.5497 10.0001 2.74762 9.95284 2.90636 9.83782C3.0651 9.72281 3.17168 9.54948 3.20268 9.35593C3.2182 9.25994 3.21463 9.16184 3.19219 9.06724C3.16975 8.97264 3.12888 8.88338 3.0719 8.8046C3.01493 8.72581 2.94298 8.65902 2.86017 8.60807C2.77735 8.55712 2.68531 8.523 2.58929 8.50766C2.53918 8.50036 2.48852 8.49745 2.4379 8.49896ZM18.4452 8.49896C18.3952 8.49755 18.3451 8.50046 18.2956 8.50766C18.1994 8.52279 18.1072 8.55677 18.0241 8.60763C17.9411 8.65849 17.869 8.72525 17.8118 8.80406C17.7547 8.88287 17.7137 8.97219 17.6911 9.06689C17.6686 9.16159 17.6649 9.25982 17.6804 9.35593C17.7114 9.54948 17.818 9.72281 17.9768 9.83782C18.1355 9.95284 18.3334 10.0001 18.527 9.96929C18.623 9.95415 18.7151 9.92023 18.798 9.86948C18.8808 9.81873 18.9529 9.75214 19.01 9.67352C19.0672 9.5949 19.1082 9.50579 19.1309 9.41129C19.1536 9.31678 19.1574 9.21874 19.1421 9.12276C19.1157 8.95455 19.032 8.80061 18.9052 8.68696C18.7783 8.57331 18.6162 8.50691 18.4461 8.49896M5.99991 8.64512C5.91698 8.65274 5.83809 8.68449 5.77299 8.73644C5.7079 8.78839 5.65945 8.85827 5.63362 8.93745C5.61627 8.99051 5.60958 9.04648 5.61394 9.10214C5.61829 9.1578 5.6336 9.21205 5.65899 9.26177C5.68438 9.31149 5.71934 9.3557 5.76187 9.39187C5.8044 9.42804 5.85366 9.45544 5.90682 9.47251C5.95977 9.48989 6.01564 9.49666 6.07121 9.49242C6.12679 9.48818 6.18098 9.47302 6.23068 9.44781C6.28039 9.42259 6.32463 9.38782 6.36088 9.34548C6.39712 9.30314 6.42466 9.25406 6.4419 9.20106C6.47675 9.09365 6.46755 8.9768 6.41633 8.87616C6.36512 8.77552 6.27606 8.69931 6.16871 8.66426C6.11425 8.64685 6.05689 8.64035 5.99991 8.64512ZM14.8841 8.64512C14.8274 8.64046 14.7703 8.64697 14.7161 8.66426C14.6092 8.69989 14.5206 8.77619 14.4695 8.87664C14.4183 8.9771 14.4088 9.09364 14.4429 9.20106C14.4784 9.30809 14.5547 9.39674 14.6553 9.44761C14.7559 9.49848 14.8726 9.50743 14.9798 9.47251C15.0327 9.45518 15.0817 9.42758 15.1239 9.39129C15.1661 9.35499 15.2007 9.31071 15.2258 9.261C15.2508 9.21128 15.2658 9.15711 15.2699 9.10159C15.274 9.04606 15.267 8.99028 15.2495 8.93745C15.2247 8.8578 15.1767 8.7874 15.1116 8.7353C15.0464 8.68319 14.9672 8.65179 14.8841 8.64512ZM4.88276 9.10797C4.76484 9.11375 4.65253 9.16 4.56473 9.23892C4.47693 9.31784 4.41902 9.42461 4.40075 9.54124C4.38701 9.60911 4.38712 9.67906 4.40107 9.74689C4.41503 9.81472 4.44254 9.87904 4.48196 9.93597C4.52139 9.99291 4.5719 10.0413 4.63048 10.0782C4.68907 10.1152 4.75451 10.1399 4.82288 10.1509C4.89125 10.1619 4.96114 10.159 5.02836 10.1424C5.09558 10.1257 5.15875 10.0957 5.21407 10.054C5.26939 10.0123 5.31572 9.95994 5.35029 9.89994C5.38486 9.83993 5.40695 9.77356 5.41524 9.70481C5.43652 9.56971 5.4033 9.4317 5.32287 9.32109C5.24244 9.21048 5.12138 9.13633 4.9863 9.11493C4.9521 9.10918 4.91742 9.10685 4.88276 9.10797ZM16.0004 9.10797C15.9654 9.10679 15.9304 9.10912 15.8959 9.11493C15.829 9.1253 15.7647 9.14883 15.7069 9.18414C15.6491 9.21946 15.5988 9.26588 15.559 9.32072C15.5193 9.37555 15.4907 9.43772 15.4751 9.50365C15.4594 9.56957 15.457 9.63794 15.4679 9.70481C15.4785 9.77143 15.5021 9.83532 15.5374 9.89282C15.5727 9.95031 15.619 10.0003 15.6736 10.0399C15.7282 10.0795 15.7901 10.1079 15.8557 10.1236C15.9213 10.1392 15.9894 10.1418 16.056 10.1311C16.1228 10.1205 16.1869 10.0969 16.2445 10.0615C16.3021 10.0261 16.3522 9.97961 16.3918 9.92479C16.4314 9.86998 16.4598 9.80787 16.4754 9.74205C16.4909 9.67623 16.4933 9.60799 16.4824 9.54124C16.4641 9.42461 16.4062 9.31784 16.3184 9.23892C16.2306 9.16 16.1183 9.11375 16.0004 9.10797ZM6.66203 9.55516C6.58197 9.55899 6.50563 9.59007 6.44565 9.64324C6.38568 9.6964 6.34567 9.76847 6.33228 9.84749C6.32473 9.89307 6.32634 9.93969 6.337 9.98464C6.34766 10.0296 6.36717 10.072 6.39438 10.1093C6.42159 10.1466 6.45596 10.1782 6.49549 10.2021C6.53502 10.226 6.57892 10.2418 6.62462 10.2486C6.71563 10.2629 6.80859 10.2405 6.88313 10.1863C6.95766 10.1322 7.00768 10.0507 7.02223 9.95972C7.02968 9.91418 7.02807 9.86762 7.01749 9.82271C7.00691 9.77779 6.98756 9.73541 6.96056 9.69798C6.93357 9.66056 6.89945 9.62884 6.86016 9.60463C6.82088 9.58042 6.7772 9.5642 6.73163 9.5569C6.70855 9.554 6.68523 9.55341 6.66203 9.55516ZM14.2211 9.55516C14.1972 9.55387 14.1733 9.55504 14.1497 9.55864C14.1043 9.56583 14.0608 9.58193 14.0217 9.60602C13.9826 9.63011 13.9486 9.66171 13.9217 9.699C13.8949 9.73629 13.8757 9.77852 13.8652 9.82327C13.8548 9.86802 13.8533 9.9144 13.8609 9.95972C13.8681 10.0049 13.8841 10.0483 13.9081 10.0873C13.9321 10.1263 13.9635 10.1602 14.0006 10.187C14.0377 10.2138 14.0797 10.2331 14.1243 10.2437C14.1688 10.2542 14.215 10.2559 14.2602 10.2486C14.3056 10.2416 14.3492 10.2257 14.3884 10.2018C14.4276 10.1779 14.4616 10.1465 14.4887 10.1094C14.5157 10.0723 14.5351 10.0302 14.5457 9.98552C14.5564 9.94087 14.5581 9.89455 14.5508 9.84923C14.5384 9.76948 14.4986 9.69653 14.4383 9.64289C14.378 9.58924 14.3017 9.55823 14.2211 9.55516ZM0.877018 9.62302C0.644418 9.62302 0.421345 9.71542 0.256873 9.87989C0.0923998 10.0444 0 10.2674 0 10.5C0 10.7326 0.0923998 10.9557 0.256873 11.1201C0.421345 11.2846 0.644418 11.377 0.877018 11.377C0.992295 11.3772 1.10648 11.3547 1.21304 11.3107C1.3196 11.2667 1.41643 11.2022 1.49798 11.1207C1.57953 11.0392 1.64421 10.9425 1.6883 10.8359C1.73238 10.7294 1.75502 10.6153 1.75491 10.5C1.75491 10.0163 1.36251 9.62302 0.877888 9.62302H0.877018ZM20.0044 9.62302C19.7716 9.62268 19.5483 9.71479 19.3835 9.87909C19.2187 10.0434 19.1259 10.2664 19.1256 10.4991C19.1253 10.7318 19.2174 10.9552 19.3817 11.1199C19.546 11.2847 19.769 11.3775 20.0017 11.3779C20.117 11.378 20.2311 11.3555 20.3376 11.3116C20.4442 11.2676 20.541 11.2031 20.6226 11.1218C20.7042 11.0404 20.769 10.9438 20.8132 10.8374C20.8575 10.731 20.8803 10.617 20.8805 10.5017C20.8807 10.3865 20.8581 10.2724 20.8142 10.1659C20.7703 10.0594 20.7058 9.96253 20.6244 9.88094C20.5431 9.79934 20.4464 9.73457 20.34 9.69031C20.2336 9.64606 20.1196 9.62319 20.0044 9.62302ZM3.71688 9.88403C3.55335 9.88403 3.39649 9.94887 3.28069 10.0643C3.16489 10.1798 3.0996 10.3365 3.09914 10.5C3.09937 10.6637 3.16456 10.8206 3.28038 10.9362C3.39621 11.0519 3.5532 11.1168 3.71688 11.1168C3.88042 11.1166 4.03719 11.0516 4.15282 10.9359C4.26846 10.8203 4.33352 10.6635 4.33375 10.5C4.33352 10.3365 4.26846 10.1797 4.15282 10.0641C4.03719 9.94845 3.88042 9.88426 3.71688 9.88403ZM17.1645 9.88316C17.0079 9.89335 16.8611 9.96273 16.7538 10.0772C16.6466 10.1917 16.5869 10.3427 16.5869 10.4996C16.5869 10.6565 16.6466 10.8075 16.7538 10.9219C16.8611 11.0364 17.0079 11.1058 17.1645 11.116C17.2454 11.1161 17.3256 11.1002 17.4004 11.0692C17.4752 11.0382 17.5432 10.9928 17.6003 10.9355C17.6575 10.8781 17.7028 10.8101 17.7335 10.7352C17.7643 10.6603 17.78 10.5801 17.7796 10.4991C17.7798 10.4182 17.7641 10.338 17.7333 10.2632C17.7025 10.1884 17.6572 10.1204 17.6001 10.0631C17.5429 10.0058 17.475 9.9603 17.4003 9.92928C17.3255 9.89826 17.2454 9.88229 17.1645 9.88229M5.8085 10.072C5.69558 10.0722 5.58737 10.1172 5.5076 10.1971C5.42784 10.277 5.38304 10.3854 5.38304 10.4983C5.38304 10.7323 5.57359 10.9228 5.8085 10.9211C5.86426 10.9211 5.91947 10.9101 5.97098 10.8888C6.0225 10.8674 6.0693 10.8362 6.10873 10.7967C6.14816 10.7573 6.17943 10.7105 6.20077 10.659C6.22211 10.6075 6.23309 10.5523 6.23309 10.4965C6.23309 10.4408 6.22211 10.3856 6.20077 10.334C6.17943 10.2825 6.14816 10.2357 6.10873 10.1963C6.0693 10.1569 6.0225 10.1256 5.97098 10.1043C5.91947 10.0829 5.86426 10.072 5.8085 10.072ZM15.0729 10.072C14.9601 10.0724 14.8521 10.1175 14.7725 10.1974C14.693 10.2773 14.6483 10.3855 14.6483 10.4983C14.6483 10.5539 14.6593 10.6091 14.6806 10.6605C14.702 10.7119 14.7333 10.7586 14.7727 10.7979C14.8122 10.8372 14.859 10.8683 14.9105 10.8894C14.962 10.9106 15.0172 10.9213 15.0729 10.9211C15.1285 10.9212 15.1836 10.9104 15.2351 10.8892C15.2865 10.868 15.3333 10.8369 15.3727 10.7976C15.4122 10.7583 15.4435 10.7117 15.4649 10.6603C15.4863 10.609 15.4973 10.5539 15.4975 10.4983C15.4975 10.3855 15.4528 10.2773 15.3732 10.1974C15.2936 10.1175 15.1856 10.0724 15.0729 10.072ZM14.188 10.7445C14.1078 10.7481 14.0313 10.7794 13.9716 10.833C13.9118 10.8866 13.8724 10.9592 13.86 11.0385C13.8528 11.0838 13.8545 11.1301 13.8651 11.1748C13.8758 11.2194 13.8951 11.2615 13.922 11.2987C13.9763 11.3737 14.0582 11.4241 14.1497 11.4388C14.2412 11.4534 14.3348 11.4311 14.4099 11.3768C14.4849 11.3225 14.5353 11.2405 14.55 11.149C14.5573 11.1037 14.5555 11.0574 14.5449 11.0128C14.5342 10.9681 14.5148 10.926 14.4878 10.8889C14.4608 10.8518 14.4267 10.8204 14.3875 10.7965C14.3483 10.7726 14.3047 10.7567 14.2594 10.7497C14.2358 10.7455 14.2119 10.7438 14.188 10.7445ZM6.69335 10.7462C6.66951 10.7449 6.6456 10.7461 6.62201 10.7497C6.57655 10.7567 6.53292 10.7726 6.49366 10.7966C6.45439 10.8205 6.42026 10.852 6.39324 10.8892C6.36622 10.9264 6.34684 10.9686 6.33622 11.0134C6.32561 11.0581 6.32397 11.1045 6.33141 11.1499C6.34636 11.2414 6.39696 11.3233 6.47213 11.3776C6.5473 11.4319 6.64092 11.4542 6.7325 11.4396C6.8239 11.4247 6.90569 11.3742 6.9601 11.2993C7.01452 11.2243 7.03716 11.131 7.0231 11.0394C7.0105 10.96 6.97075 10.8873 6.91063 10.8339C6.85052 10.7804 6.77373 10.7495 6.69335 10.7462ZM4.92974 10.8619C4.89457 10.8601 4.85929 10.8619 4.82447 10.8672C4.69022 10.8889 4.5701 10.9631 4.4905 11.0734C4.41089 11.1837 4.3783 11.321 4.39988 11.4553C4.42087 11.5896 4.49432 11.7102 4.60411 11.7904C4.71389 11.8707 4.85103 11.9041 4.98543 11.8833C5.05246 11.8731 5.1168 11.8496 5.17472 11.8143C5.23264 11.7791 5.283 11.7327 5.32288 11.6778C5.36276 11.623 5.39138 11.5608 5.40709 11.4948C5.42279 11.4288 5.42526 11.3604 5.41437 11.2935C5.39564 11.1767 5.33719 11.07 5.24889 10.9914C5.1606 10.9128 5.04786 10.8671 4.92974 10.8619ZM15.9516 10.8619C15.8333 10.8671 15.7203 10.9131 15.632 10.9921C15.5437 11.0711 15.4854 11.1782 15.467 11.2952C15.4565 11.3618 15.4592 11.4298 15.475 11.4954C15.4908 11.561 15.5193 11.6228 15.559 11.6773C15.5986 11.7318 15.6487 11.778 15.7062 11.8132C15.7637 11.8484 15.8276 11.872 15.8942 11.8825C15.9608 11.893 16.0288 11.8903 16.0944 11.8745C16.16 11.8587 16.2218 11.8302 16.2763 11.7905C16.3309 11.7508 16.377 11.7008 16.4122 11.6433C16.4475 11.5858 16.471 11.5219 16.4815 11.4553C16.4922 11.3887 16.4896 11.3206 16.4739 11.255C16.4583 11.1894 16.4298 11.1275 16.3902 11.0729C16.3507 11.0182 16.3007 10.9719 16.2432 10.9366C16.1857 10.9014 16.1218 10.8777 16.0552 10.8672C16.0209 10.862 15.9862 10.8602 15.9516 10.8619ZM2.50576 11.022C2.45572 11.0206 2.40565 11.0235 2.35611 11.0307C2.21115 11.0534 2.07618 11.1186 1.9683 11.218C1.86041 11.3175 1.78447 11.4467 1.75008 11.5893C1.71569 11.732 1.72441 11.8816 1.77512 12.0193C1.82584 12.157 1.91627 12.2765 2.03497 12.3627C2.15367 12.449 2.2953 12.4981 2.44192 12.5038C2.58853 12.5095 2.73354 12.4715 2.85858 12.3948C2.98362 12.318 3.08307 12.2058 3.14432 12.0725C3.20558 11.9392 3.22589 11.7907 3.20268 11.6458C3.17619 11.4775 3.09236 11.3234 2.96537 11.2098C2.83838 11.0961 2.67602 11.0298 2.50576 11.022ZM18.3773 11.022C18.1877 11.0306 18.0087 11.1116 17.8771 11.2484C17.7455 11.3852 17.6715 11.5673 17.6704 11.7571C17.6692 11.9469 17.741 12.1299 17.8709 12.2683C18.0007 12.4067 18.1788 12.4899 18.3683 12.5008C18.5578 12.5117 18.7442 12.4494 18.8891 12.3268C19.034 12.2042 19.1262 12.0306 19.1468 11.842C19.1674 11.6533 19.1148 11.4639 18.9997 11.313C18.8847 11.162 18.7161 11.061 18.5287 11.0307C18.4786 11.0234 18.428 11.0205 18.3773 11.022ZM6.07474 11.5075C6.01776 11.5027 5.96041 11.5092 5.90595 11.5266C5.7986 11.5617 5.70954 11.6379 5.65832 11.7385C5.6071 11.8392 5.5979 11.956 5.63275 12.0634C5.67269 12.1643 5.74959 12.2462 5.84777 12.2923C5.94596 12.3385 6.05805 12.3454 6.16121 12.3118C6.26436 12.2782 6.35083 12.2066 6.40298 12.1114C6.45513 12.0163 6.46905 11.9049 6.4419 11.7998C6.41596 11.7204 6.36724 11.6503 6.30181 11.5984C6.23638 11.5464 6.15798 11.5148 6.07474 11.5075ZM14.8092 11.5075C14.726 11.5148 14.6467 11.5464 14.5813 11.5984C14.5159 11.6503 14.4672 11.7204 14.4412 11.7998C14.4069 11.907 14.4164 12.0234 14.4675 12.1236C14.5187 12.2239 14.6075 12.2998 14.7144 12.3349C14.7672 12.3522 14.823 12.359 14.8784 12.3547C14.9339 12.3505 14.988 12.3353 15.0375 12.3101C15.0871 12.2848 15.1312 12.2501 15.1673 12.2077C15.2033 12.1654 15.2307 12.1164 15.2478 12.0634C15.2828 11.9565 15.274 11.84 15.2235 11.7395C15.173 11.6389 15.0847 11.5624 14.978 11.5266C14.9236 11.5092 14.8662 11.5027 14.8092 11.5075ZM7.02223 11.8799C6.9758 11.8833 6.93054 11.896 6.88911 11.9173C6.84808 11.9379 6.81154 11.9665 6.7816 12.0013C6.75167 12.0362 6.72892 12.0766 6.71469 12.1203C6.70045 12.164 6.695 12.21 6.69866 12.2558C6.70231 12.3016 6.715 12.3462 6.73598 12.3871C6.77755 12.4694 6.85011 12.5319 6.93772 12.5608C7.02533 12.5896 7.12082 12.5826 7.2032 12.5411C7.24424 12.5204 7.28078 12.4918 7.31071 12.457C7.34065 12.4222 7.36339 12.3817 7.37763 12.3381C7.39186 12.2944 7.39731 12.2483 7.39366 12.2025C7.39 12.1567 7.37732 12.1121 7.35633 12.0713C7.3256 12.0099 7.2774 11.959 7.2178 11.9249C7.1582 11.8908 7.09072 11.8752 7.02223 11.8799ZM13.86 11.8799C13.7914 11.8757 13.723 11.8915 13.6631 11.9253C13.6032 11.9591 13.5543 12.0095 13.5224 12.0704C13.481 12.1531 13.4738 12.2488 13.5025 12.3367C13.5312 12.4247 13.5933 12.4978 13.6756 12.5402C13.7584 12.5825 13.8547 12.5903 13.9432 12.5617C14.0318 12.5332 14.1054 12.4707 14.148 12.3879C14.235 12.2174 14.1654 12.0051 13.9931 11.9173C13.952 11.8961 13.907 11.8834 13.8609 11.8799M4.09884 11.9616C4.01653 11.9546 3.93364 11.9644 3.85522 11.9904C3.69983 12.0413 3.57099 12.1518 3.49695 12.2976C3.4229 12.4434 3.40969 12.6126 3.46022 12.7681C3.48517 12.8451 3.52505 12.9164 3.57757 12.9779C3.6301 13.0394 3.69425 13.0899 3.76633 13.1266C3.83842 13.1633 3.91704 13.1854 3.99768 13.1917C4.07833 13.1979 4.15942 13.1882 4.23631 13.1631C4.31343 13.1383 4.38488 13.0984 4.44656 13.0459C4.50823 12.9933 4.55892 12.9291 4.5957 12.8569C4.63249 12.7847 4.65465 12.706 4.66091 12.6252C4.66717 12.5444 4.65741 12.4632 4.63218 12.3862C4.59475 12.2709 4.52422 12.1692 4.42938 12.0937C4.33455 12.0182 4.21959 11.9723 4.09884 11.9616ZM16.7825 11.9616C16.6616 11.9724 16.5465 12.0186 16.4516 12.0944C16.3567 12.1702 16.2863 12.2723 16.2492 12.3879C16.1448 12.7116 16.3205 13.0579 16.6451 13.1623C16.7219 13.1874 16.8029 13.1971 16.8835 13.1909C16.9641 13.1847 17.0427 13.1627 17.1148 13.1261C17.1869 13.0895 17.251 13.039 17.3036 12.9776C17.3562 12.9162 17.3961 12.845 17.4212 12.7681C17.4716 12.6125 17.4583 12.4432 17.3841 12.2974C17.3099 12.1516 17.1808 12.0411 17.0253 11.9904C16.9471 11.9645 16.8646 11.9547 16.7825 11.9616ZM5.41089 12.5306C5.34273 12.5356 5.27622 12.554 5.21512 12.5846C5.15473 12.615 5.10096 12.6571 5.05688 12.7084C5.0128 12.7596 4.97928 12.8191 4.95826 12.8834C4.93724 12.9477 4.92913 13.0155 4.93439 13.0829C4.93965 13.1503 4.95817 13.216 4.98891 13.2762C5.0195 13.3365 5.06168 13.3901 5.11303 13.434C5.16438 13.4779 5.22389 13.5112 5.28815 13.5321C5.35241 13.5529 5.42016 13.5609 5.4875 13.5555C5.55485 13.5501 5.62047 13.5315 5.6806 13.5007C5.74094 13.4705 5.79468 13.4285 5.83869 13.3774C5.88271 13.3262 5.91612 13.2668 5.937 13.2026C5.95789 13.1385 5.96582 13.0708 5.96034 13.0035C5.95486 12.9362 5.93607 12.8707 5.90508 12.8108C5.85943 12.7206 5.78818 12.646 5.70027 12.5961C5.61236 12.5463 5.51169 12.5235 5.41089 12.5306ZM15.4705 12.5306C15.3699 12.5233 15.2693 12.5459 15.1814 12.5954C15.0936 12.6449 15.0222 12.7192 14.9763 12.809C14.9455 12.8692 14.9269 12.9348 14.9215 13.0021C14.9161 13.0695 14.9241 13.1372 14.9449 13.2015C14.9658 13.2657 14.9991 13.3252 15.043 13.3766C15.0869 13.4279 15.1405 13.4701 15.2008 13.5007C15.2614 13.537 15.3288 13.5605 15.3989 13.5696C15.469 13.5788 15.5402 13.5734 15.6081 13.5539C15.676 13.5343 15.7392 13.501 15.7936 13.456C15.8481 13.411 15.8927 13.3552 15.9247 13.2922C15.9568 13.2292 15.9755 13.1603 15.9797 13.0898C15.9839 13.0192 15.9736 12.9486 15.9493 12.8822C15.9251 12.8158 15.8875 12.7551 15.8388 12.7039C15.79 12.6527 15.7313 12.6121 15.6662 12.5846C15.6052 12.554 15.5386 12.5356 15.4705 12.5306ZM1.4208 12.5802C1.30415 12.5702 1.18666 12.5838 1.07539 12.6202C0.91012 12.6737 0.764437 12.7751 0.656782 12.9114C0.549128 13.0477 0.484341 13.2129 0.470623 13.3861C0.456905 13.5593 0.494873 13.7326 0.57972 13.8842C0.664566 14.0358 0.792478 14.1588 0.947264 14.2376C1.10205 14.3165 1.27675 14.3476 1.44926 14.3272C1.62176 14.3067 1.78431 14.2355 1.91633 14.1226C2.04836 14.0097 2.14392 13.8602 2.19092 13.6929C2.23792 13.5257 2.23424 13.3483 2.18036 13.1831C2.12688 13.0192 2.02635 12.8746 1.89129 12.7674C1.75623 12.6602 1.5926 12.5951 1.4208 12.5802ZM19.4606 12.5802C19.2888 12.5951 19.1251 12.6602 18.9901 12.7674C18.855 12.8746 18.7545 13.0192 18.701 13.1831C18.6472 13.3481 18.6435 13.5253 18.6905 13.6923C18.7374 13.8593 18.8328 14.0087 18.9646 14.1215C19.0964 14.2342 19.2587 14.3054 19.431 14.3259C19.6033 14.3465 19.7778 14.3154 19.9324 14.2368C20.087 14.1581 20.2149 14.0354 20.2997 13.8841C20.3846 13.7327 20.4227 13.5597 20.4091 13.3867C20.3956 13.2137 20.3311 13.0487 20.2237 12.9124C20.1163 12.7761 19.971 12.6748 19.806 12.6211C19.6948 12.5844 19.5773 12.5705 19.4606 12.5802ZM6.67856 12.7977C6.59405 12.8013 6.51242 12.8294 6.44364 12.8786C6.35256 12.9449 6.29137 13.0444 6.27344 13.1556C6.2555 13.2668 6.28229 13.3805 6.34794 13.472C6.38074 13.5175 6.4222 13.556 6.46993 13.5854C6.51765 13.6149 6.57072 13.6346 6.62608 13.6435C6.68144 13.6524 6.73801 13.6503 6.79255 13.6372C6.84709 13.6242 6.89853 13.6006 6.94393 13.5677C7.03537 13.5013 7.09673 13.4014 7.11451 13.2898C7.1323 13.1782 7.10505 13.0641 7.03876 12.9726C6.99712 12.9167 6.94266 12.8717 6.87998 12.8413C6.81729 12.8108 6.74822 12.7959 6.67856 12.7977ZM14.2028 12.7977C14.1334 12.7953 14.0645 12.81 14.002 12.8403C13.9395 12.8706 13.8854 12.9157 13.8444 12.9717C13.7779 13.063 13.7504 13.177 13.7678 13.2885C13.7853 13.4001 13.8463 13.5002 13.9374 13.5668C14.128 13.7052 14.3951 13.6625 14.5308 13.472C14.5967 13.3808 14.624 13.2673 14.6065 13.1561C14.5891 13.045 14.5284 12.9452 14.4377 12.8786C14.369 12.8294 14.2873 12.8013 14.2028 12.7977ZM7.74699 12.8447C7.7011 12.8442 7.65557 12.8528 7.61301 12.87C7.57046 12.8871 7.53172 12.9126 7.49902 12.9448C7.46627 12.9771 7.44027 13.0157 7.42252 13.0582C7.40478 13.1007 7.39564 13.1462 7.39564 13.1923C7.39564 13.2383 7.40478 13.2839 7.42252 13.3264C7.44027 13.3689 7.46627 13.4074 7.49902 13.4398C7.56452 13.5055 7.6534 13.5426 7.7462 13.543C7.83899 13.5433 7.92813 13.5068 7.99409 13.4415C8.02665 13.409 8.05249 13.3703 8.07012 13.3278C8.08774 13.2852 8.09681 13.2396 8.09681 13.1936C8.09681 13.1475 8.08774 13.1019 8.07012 13.0594C8.05249 13.0168 8.02665 12.9782 7.99409 12.9456C7.96157 12.9134 7.923 12.8879 7.8806 12.8705C7.8382 12.8532 7.79279 12.8444 7.74699 12.8447ZM13.1344 12.8447C13.0887 12.8447 13.0434 12.8536 13.0011 12.8711C12.9589 12.8886 12.9205 12.9142 12.8882 12.9465C12.8557 12.979 12.8299 13.0175 12.8122 13.0599C12.7946 13.1023 12.7855 13.1478 12.7855 13.1937C12.7854 13.2865 12.8222 13.3755 12.8877 13.4411C12.9533 13.5068 13.0422 13.5437 13.1349 13.5438C13.2277 13.5438 13.3167 13.5071 13.3823 13.4415C13.4151 13.4092 13.4411 13.3706 13.4588 13.3281C13.4766 13.2857 13.4857 13.2401 13.4857 13.194C13.4857 13.148 13.4766 13.1024 13.4588 13.0599C13.4411 13.0174 13.4151 12.9789 13.3823 12.9465C13.3498 12.914 13.3111 12.8883 13.2686 12.8708C13.226 12.8533 13.1804 12.8444 13.1344 12.8447ZM3.19833 13.4241C3.09988 13.43 3.00379 13.4567 2.91643 13.5024C2.75268 13.5856 2.62568 13.7266 2.56008 13.8981C2.49448 14.0696 2.49496 14.2594 2.56143 14.4306C2.62791 14.6018 2.75563 14.7422 2.9198 14.8245C3.08397 14.9068 3.27287 14.9251 3.44981 14.876C3.62676 14.8268 3.77912 14.7137 3.87732 14.5585C3.97552 14.4033 4.01254 14.2172 3.9812 14.0363C3.94986 13.8553 3.85239 13.6925 3.70772 13.5794C3.56305 13.4662 3.3815 13.4109 3.19833 13.4241ZM17.683 13.4241C17.5378 13.4146 17.393 13.4477 17.2663 13.5192C17.1396 13.5908 17.0365 13.6977 16.9696 13.827C16.9032 13.9575 16.877 14.1048 16.8944 14.2502C16.9117 14.3956 16.9718 14.5326 17.067 14.6439C17.1622 14.7552 17.2883 14.8357 17.4293 14.8753C17.5703 14.9149 17.7199 14.9119 17.8591 14.8665C17.9984 14.8211 18.121 14.7354 18.2115 14.6203C18.3021 14.5052 18.3565 14.3658 18.3678 14.2198C18.3791 14.0738 18.3469 13.9277 18.2752 13.8C18.2035 13.6723 18.0955 13.5688 17.9649 13.5024C17.8776 13.4567 17.7815 13.43 17.683 13.4241ZM12.1451 13.5451C12.0984 13.5484 12.0528 13.5611 12.0111 13.5825C11.9292 13.6254 11.8674 13.6988 11.839 13.7868C11.8107 13.8749 11.8181 13.9705 11.8597 14.0532C11.8804 14.0941 11.9089 14.1305 11.9437 14.1604C11.9785 14.1902 12.0188 14.2129 12.0624 14.2272C12.106 14.2414 12.1519 14.2469 12.1976 14.2433C12.2433 14.2397 12.2879 14.2271 12.3287 14.2063C12.4111 14.1639 12.4735 14.0906 12.5022 14.0025C12.5309 13.9143 12.5235 13.8184 12.4818 13.7356C12.4509 13.6741 12.4023 13.6232 12.3424 13.5892C12.2825 13.5553 12.2138 13.54 12.1451 13.5451ZM8.73624 13.5468C8.66775 13.5415 8.59923 13.5567 8.53931 13.5903C8.47939 13.6238 8.43076 13.6744 8.39953 13.7356C8.37855 13.7765 8.36586 13.8211 8.36221 13.8669C8.35855 13.9127 8.364 13.9587 8.37824 14.0024C8.39247 14.0461 8.41522 14.0865 8.44515 14.1214C8.47509 14.1562 8.51163 14.1848 8.55266 14.2054C8.63539 14.2475 8.73145 14.2551 8.81973 14.2263C8.908 14.1976 8.98125 14.135 9.02336 14.0523C9.06548 13.9696 9.073 13.8735 9.04428 13.7852C9.01557 13.697 8.95296 13.6237 8.87023 13.5816C8.82835 13.5612 8.78279 13.5493 8.73624 13.5468ZM7.73394 13.8217C7.66438 13.8196 7.59535 13.8344 7.53286 13.8651C7.47038 13.8957 7.41634 13.9412 7.37547 13.9975C7.30948 14.0885 7.28235 14.202 7.30005 14.3131C7.31776 14.4241 7.37884 14.5235 7.46988 14.5895C7.56091 14.6555 7.67443 14.6827 7.78546 14.665C7.8965 14.6473 7.99595 14.5862 8.06195 14.4951C8.12778 14.4039 8.15485 14.2903 8.13724 14.1791C8.11964 14.0679 8.0588 13.9683 7.96798 13.9018C7.89911 13.8529 7.81835 13.825 7.73394 13.8217ZM13.1483 13.8217C13.0639 13.825 12.9823 13.8529 12.9134 13.9018C12.8451 13.951 12.7929 14.0194 12.7635 14.0982C12.7341 14.1771 12.7287 14.2629 12.7481 14.3449C12.7675 14.4268 12.8107 14.5011 12.8724 14.5585C12.934 14.6158 13.0113 14.6536 13.0944 14.667C13.1775 14.6804 13.2627 14.6688 13.3393 14.6338C13.4158 14.5987 13.4802 14.5417 13.5244 14.4701C13.5685 14.3984 13.5904 14.3152 13.5873 14.2311C13.5842 14.147 13.5561 14.0657 13.5068 13.9975C13.4659 13.9412 13.4119 13.8957 13.3494 13.8651C13.2869 13.8344 13.2179 13.8196 13.1483 13.8217ZM4.97847 13.8357C4.85601 13.8391 4.73745 13.8795 4.63827 13.9514C4.57268 13.9991 4.51714 14.0593 4.47482 14.1286C4.4325 14.1978 4.40424 14.2746 4.39163 14.3548C4.37903 14.4349 4.38234 14.5168 4.40137 14.5956C4.4204 14.6745 4.45478 14.7489 4.50255 14.8144C4.54983 14.8801 4.60966 14.9357 4.67858 14.9781C4.74749 15.0205 4.82413 15.0489 4.90406 15.0615C4.98399 15.0741 5.06562 15.0708 5.14425 15.0517C5.22288 15.0326 5.29694 14.9981 5.36216 14.9502C5.42768 14.9028 5.48321 14.843 5.52558 14.7741C5.56796 14.7052 5.59634 14.6287 5.60911 14.5489C5.62187 14.469 5.61878 14.3875 5.59999 14.3088C5.58121 14.2302 5.5471 14.156 5.49963 14.0906C5.44019 14.0085 5.36149 13.9424 5.27045 13.8979C5.17942 13.8535 5.07884 13.8321 4.9776 13.8357M15.9003 13.8357C15.799 13.8321 15.6985 13.8535 15.6074 13.8979C15.5164 13.9424 15.4377 14.0085 15.3783 14.0906C15.3306 14.156 15.2964 14.2302 15.2775 14.3089C15.2587 14.3876 15.2556 14.4693 15.2685 14.5492C15.2813 14.6291 15.3099 14.7056 15.3525 14.7745C15.395 14.8433 15.4508 14.903 15.5166 14.9502C15.582 14.9981 15.6562 15.0326 15.7349 15.0518C15.8137 15.0709 15.8955 15.0743 15.9755 15.0616C16.0556 15.049 16.1324 15.0207 16.2015 14.9783C16.2705 14.9358 16.3305 14.8802 16.378 14.8144C16.4256 14.7488 16.4599 14.6743 16.4788 14.5954C16.4977 14.5165 16.5008 14.4346 16.4881 14.3544C16.4753 14.2743 16.4469 14.1974 16.4044 14.1283C16.3619 14.0591 16.3062 13.999 16.2405 13.9514C16.1416 13.8796 16.0225 13.8393 15.9003 13.8357ZM9.82817 13.9122C9.7471 13.9161 9.66983 13.9478 9.60944 14.002C9.54904 14.0562 9.50921 14.1296 9.49667 14.2098C9.4834 14.3016 9.50682 14.395 9.56185 14.4697C9.61688 14.5445 9.6991 14.5945 9.79075 14.6091C9.88248 14.6235 9.97618 14.6009 10.0512 14.5463C10.1263 14.4916 10.1766 14.4094 10.191 14.3177C10.2054 14.2259 10.1828 14.1322 10.1281 14.0572C10.0735 13.9821 9.99124 13.9319 9.89951 13.9174C9.87597 13.9133 9.85206 13.9115 9.82817 13.9122ZM11.0515 13.914C11.0276 13.9127 11.0037 13.9138 10.9801 13.9174C10.9348 13.9246 10.8914 13.9407 10.8523 13.9647C10.8132 13.9888 10.7793 14.0203 10.7525 14.0575C10.7256 14.0947 10.7064 14.1368 10.6959 14.1815C10.6854 14.2261 10.6838 14.2724 10.6913 14.3177C10.6981 14.3632 10.714 14.4069 10.7379 14.4463C10.7618 14.4856 10.7933 14.5199 10.8305 14.547C10.8677 14.5741 10.91 14.5935 10.9548 14.6042C10.9996 14.6149 11.046 14.6165 11.0915 14.6091C11.1367 14.6018 11.1801 14.5857 11.219 14.5616C11.258 14.5375 11.2918 14.506 11.3186 14.4688C11.3453 14.4316 11.3645 14.3895 11.3749 14.3449C11.3854 14.3003 11.3869 14.2541 11.3795 14.2089C11.3675 14.1293 11.3282 14.0562 11.2684 14.0023C11.2086 13.9484 11.1319 13.9177 11.0515 13.914ZM6.47671 13.947C6.34036 13.9481 6.20983 14.0024 6.11302 14.0984C6.0168 14.1949 5.96283 14.3256 5.96299 14.4618C5.96316 14.5981 6.01744 14.7287 6.11389 14.8249C6.21035 14.9211 6.34108 14.9751 6.47732 14.9749C6.61357 14.9747 6.74417 14.9205 6.84039 14.824C6.93679 14.728 6.99112 14.5976 6.99144 14.4616C6.99177 14.3255 6.93807 14.1949 6.84213 14.0984C6.74489 14.002 6.61366 13.9476 6.47671 13.947ZM14.4029 13.947C14.2666 13.9481 14.136 14.0024 14.0392 14.0984C13.9913 14.1459 13.9533 14.2024 13.9273 14.2647C13.9013 14.3269 13.888 14.3937 13.888 14.4612C13.888 14.5287 13.9013 14.5955 13.9273 14.6577C13.9533 14.72 13.9913 14.7765 14.0392 14.824C14.1355 14.9202 14.266 14.9742 14.4021 14.9742C14.5381 14.9742 14.6686 14.9202 14.7649 14.824C14.861 14.7278 14.9151 14.5973 14.9151 14.4612C14.9151 14.3252 14.861 14.1947 14.7649 14.0984C14.6685 14.0028 14.5387 13.9485 14.4029 13.947ZM8.97203 14.4803C8.88894 14.4878 8.80986 14.5195 8.7446 14.5714C8.67933 14.6234 8.63075 14.6934 8.60487 14.7727C8.5874 14.8257 8.58062 14.8817 8.58492 14.9374C8.58922 14.9931 8.60451 15.0474 8.62991 15.0972C8.65531 15.1469 8.69032 15.1911 8.73291 15.2273C8.77551 15.2634 8.82484 15.2908 8.87806 15.3077C8.98503 15.3421 9.10124 15.3329 9.20144 15.2821C9.30164 15.2312 9.37773 15.1429 9.41315 15.0363C9.448 14.9289 9.4388 14.812 9.38758 14.7114C9.33636 14.6107 9.2473 14.5345 9.13995 14.4995C9.08577 14.4822 9.02872 14.4757 8.97203 14.4803ZM11.9085 14.4803C11.8515 14.4756 11.7941 14.4821 11.7397 14.4995C11.6866 14.5168 11.6374 14.5444 11.5949 14.5807C11.5524 14.617 11.5175 14.6614 11.4922 14.7112C11.4669 14.761 11.4516 14.8153 11.4473 14.871C11.4429 14.9267 11.4496 14.9827 11.4669 15.0359C11.4842 15.089 11.5118 15.1382 11.5482 15.1806C11.5845 15.2231 11.6288 15.258 11.6786 15.2833C11.7284 15.3086 11.7827 15.3239 11.8385 15.3283C11.8942 15.3326 11.9502 15.3259 12.0033 15.3086C12.1101 15.2732 12.1986 15.197 12.2495 15.0966C12.3003 14.9962 12.3094 14.8797 12.2748 14.7727C12.2489 14.6935 12.2005 14.6236 12.1354 14.5717C12.0703 14.5197 11.9914 14.488 11.9085 14.4803ZM10.4398 14.7066C10.3273 14.707 10.2196 14.7519 10.1401 14.8314C10.0606 14.9109 10.0157 15.0187 10.0152 15.1311C10.0152 15.2151 10.0401 15.2972 10.0868 15.367C10.1334 15.4368 10.1998 15.4912 10.2773 15.5234C10.3549 15.5555 10.4403 15.5639 10.5226 15.5475C10.605 15.5312 10.6807 15.4907 10.74 15.4313C10.7994 15.372 10.8399 15.2963 10.8562 15.214C10.8726 15.1316 10.8642 15.0462 10.8321 14.9686C10.7999 14.8911 10.7455 14.8248 10.6757 14.7781C10.6059 14.7315 10.5238 14.7066 10.4398 14.7066ZM7.93144 14.978C7.83082 14.9707 7.73029 14.9932 7.6424 15.0428C7.55451 15.0923 7.48315 15.1666 7.43725 15.2564C7.37549 15.3781 7.36443 15.5192 7.4065 15.649C7.44857 15.7788 7.54034 15.8866 7.66172 15.9489C7.72194 15.98 7.78771 15.9989 7.85524 16.0044C7.92277 16.0099 7.99073 16.002 8.0552 15.9811C8.11966 15.9603 8.17935 15.9268 8.23084 15.8828C8.28232 15.8387 8.32457 15.7849 8.35516 15.7245C8.41641 15.6029 8.42719 15.462 8.38516 15.3325C8.34313 15.203 8.25168 15.0953 8.13068 15.0328C8.06859 15.0014 8.00084 14.9828 7.93144 14.978ZM12.9482 14.978C12.8794 14.983 12.8123 15.0017 12.7507 15.0328C12.6292 15.0948 12.5372 15.2024 12.4949 15.332C12.4525 15.4616 12.4631 15.6027 12.5245 15.7245C12.655 15.9768 12.9656 16.0777 13.2179 15.9489C13.278 15.9182 13.3314 15.8759 13.3752 15.8245C13.4189 15.7731 13.452 15.7135 13.4727 15.6493C13.4934 15.5851 13.5012 15.5174 13.4957 15.4501C13.4902 15.3828 13.4715 15.3173 13.4406 15.2573C13.3949 15.1677 13.3238 15.0936 13.2362 15.0441C13.1487 14.9946 13.0485 14.9719 12.9482 14.9789M2.67282 15.2425C2.49807 15.2485 2.32919 15.307 2.18819 15.4104C2.04727 15.5124 1.93977 15.6539 1.87933 15.817C1.81888 15.9801 1.8082 16.1574 1.84864 16.3266C1.88909 16.4958 1.97883 16.6492 2.10651 16.7673C2.23418 16.8854 2.39405 16.963 2.56586 16.9902C2.73766 17.0174 2.91368 16.993 3.07162 16.9201C3.22955 16.8472 3.3623 16.7291 3.45304 16.5807C3.54378 16.4323 3.58844 16.2603 3.58135 16.0865C3.57426 15.9127 3.51576 15.7449 3.41323 15.6044C3.32873 15.488 3.21695 15.3942 3.0877 15.3311C2.95845 15.268 2.81569 15.2375 2.67195 15.2425M18.2068 15.2442C17.9965 15.2365 17.7905 15.3046 17.6262 15.436C17.4619 15.5674 17.3502 15.7535 17.3116 15.9603C17.273 16.1672 17.3099 16.381 17.4157 16.5629C17.5215 16.7447 17.6891 16.8826 17.888 16.9513C18.0869 17.0199 18.3039 17.0149 18.4994 16.9371C18.6948 16.8592 18.8559 16.7138 18.9531 16.5272C19.0503 16.3406 19.0773 16.1253 19.0291 15.9204C18.981 15.7156 18.8608 15.5349 18.6906 15.4113C18.5497 15.3084 18.3812 15.2502 18.2068 15.2442ZM6.50803 15.3225C6.40722 15.3194 6.30717 15.341 6.21662 15.3854C6.12608 15.4299 6.04779 15.4958 5.9886 15.5774C5.9167 15.6763 5.87576 15.7943 5.87097 15.9165C5.86617 16.0386 5.89773 16.1595 5.96165 16.2637C6.02557 16.3679 6.11898 16.4508 6.23005 16.5019C6.34112 16.553 6.46486 16.57 6.58559 16.5507C6.70632 16.5314 6.81862 16.4768 6.90827 16.3937C6.99791 16.3105 7.06088 16.2027 7.08918 16.0837C7.11749 15.9648 7.10987 15.8402 7.06729 15.7256C7.0247 15.611 6.94907 15.5116 6.84996 15.44C6.7505 15.3671 6.63127 15.3262 6.50803 15.3225ZM14.3699 15.3225C14.2466 15.3262 14.1274 15.3671 14.0279 15.44C13.896 15.5364 13.8076 15.6812 13.7821 15.8426C13.7567 16.004 13.7963 16.169 13.8922 16.3013C13.9884 16.4335 14.133 16.5223 14.2945 16.548C14.4559 16.5738 14.621 16.5345 14.7536 16.4388C14.8855 16.3424 14.9739 16.1976 14.9993 16.0361C15.0248 15.8747 14.9852 15.7098 14.8893 15.5774C14.8306 15.4952 14.7525 15.4289 14.6618 15.3844C14.5711 15.3399 14.4708 15.3186 14.3699 15.3225ZM4.73398 15.4635C4.6368 15.4636 4.54061 15.4829 4.45088 15.5202C4.36116 15.5575 4.27967 15.6121 4.21108 15.681C4.14235 15.7497 4.08783 15.8313 4.05064 15.9211C4.01345 16.0109 3.9943 16.1071 3.9943 16.2043C3.9943 16.3015 4.01345 16.3977 4.05064 16.4875C4.08783 16.5773 4.14235 16.6589 4.21108 16.7276C4.2798 16.7963 4.36139 16.8509 4.45119 16.888C4.54098 16.9252 4.63722 16.9444 4.73442 16.9444C4.83161 16.9444 4.92785 16.9252 5.01765 16.888C5.10744 16.8509 5.18903 16.7963 5.25776 16.7276C5.36097 16.6239 5.43118 16.492 5.45955 16.3484C5.48792 16.2049 5.47317 16.0562 5.41716 15.921C5.36115 15.7858 5.2664 15.6703 5.14482 15.5888C5.02325 15.5074 4.8803 15.4638 4.73398 15.4635ZM16.1457 15.4652C15.9489 15.4653 15.7601 15.5428 15.6201 15.681C15.5513 15.7497 15.4968 15.8312 15.4595 15.921C15.4223 16.0108 15.4031 16.1071 15.4031 16.2043C15.4031 16.3015 15.4223 16.3978 15.4595 16.4876C15.4968 16.5774 15.5513 16.6589 15.6201 16.7276C15.7594 16.8662 15.9479 16.944 16.1443 16.944C16.3408 16.944 16.5293 16.8662 16.6686 16.7276C16.7373 16.6589 16.7919 16.5774 16.8292 16.4876C16.8664 16.3978 16.8856 16.3015 16.8856 16.2043C16.8856 16.1071 16.8664 16.0108 16.8292 15.921C16.7919 15.8312 16.7373 15.7497 16.6686 15.681C16.6001 15.6121 16.5186 15.5575 16.4288 15.5205C16.339 15.4834 16.2428 15.4646 16.1457 15.4652ZM9.54018 15.5192C9.41152 15.5227 9.28891 15.5745 9.19661 15.6642C9.10432 15.7539 9.04909 15.875 9.04187 16.0035C9.03464 16.132 9.07595 16.2585 9.15761 16.3579C9.23927 16.4574 9.35531 16.5226 9.48275 16.5406C9.54943 16.5511 9.61753 16.5484 9.68315 16.5325C9.74878 16.5167 9.81064 16.4881 9.86519 16.4483C9.91974 16.4086 9.96591 16.3585 10.0011 16.3008C10.0362 16.2432 10.0597 16.1792 10.07 16.1125C10.0808 16.046 10.0783 15.978 10.0627 15.9124C10.0471 15.8469 10.0186 15.7851 9.97898 15.7305C9.93935 15.676 9.88932 15.6299 9.83178 15.5948C9.77424 15.5597 9.71032 15.5364 9.64371 15.5261C9.60923 15.5203 9.57512 15.518 9.54018 15.5192ZM11.3368 15.5192C11.3022 15.518 11.2675 15.5204 11.2333 15.5261C11.0994 15.5479 10.9796 15.6218 10.9 15.7317C10.8205 15.8416 10.7876 15.9785 10.8087 16.1125C10.8522 16.3927 11.1132 16.5858 11.3951 16.5406C11.5295 16.5192 11.6499 16.4453 11.7299 16.3352C11.8098 16.2251 11.8428 16.0877 11.8215 15.9533C11.8031 15.8362 11.7448 15.7291 11.6565 15.6502C11.5682 15.5712 11.4552 15.5252 11.3368 15.52M8.30731 16.2796C8.18645 16.2903 8.07142 16.3363 7.97657 16.412C7.88172 16.4876 7.81125 16.5895 7.77396 16.705C7.72401 16.8604 7.73761 17.0293 7.81179 17.1747C7.88597 17.3201 8.01469 17.4303 8.16984 17.4811C8.32548 17.5315 8.4948 17.5182 8.64063 17.444C8.78646 17.3698 8.89688 17.2407 8.94767 17.0852C8.99754 16.9296 8.9837 16.7605 8.90918 16.615C8.83465 16.4696 8.70552 16.3596 8.55005 16.3091C8.47163 16.2831 8.38875 16.2734 8.30644 16.2804M12.568 16.2804C12.4857 16.2731 12.4028 16.2826 12.3244 16.3083C12.208 16.3457 12.1054 16.4168 12.0295 16.5126C11.9536 16.6084 11.9078 16.7246 11.8979 16.8464C11.8881 16.9682 11.9146 17.0902 11.9741 17.197C12.0336 17.3038 12.1234 17.3905 12.2322 17.4462C12.341 17.5018 12.4639 17.524 12.5853 17.5098C12.7067 17.4956 12.8212 17.4458 12.9142 17.3665C13.0073 17.2872 13.0747 17.1822 13.108 17.0646C13.1413 16.947 13.139 16.8221 13.1013 16.7059C13.0639 16.5906 12.9934 16.4888 12.8985 16.4133C12.8037 16.3379 12.6887 16.2919 12.568 16.2813V16.2804ZM10.4416 16.6076C10.278 16.6078 10.1213 16.6728 10.0056 16.7885C9.88998 16.9041 9.82492 17.0609 9.82469 17.2244C9.82492 17.3879 9.88998 17.5447 10.0056 17.6603C10.1213 17.7759 10.278 17.841 10.4416 17.8412C10.6052 17.841 10.7621 17.7758 10.8778 17.66C10.9935 17.5442 11.0584 17.3872 11.0584 17.2235C11.058 17.0601 10.9928 16.9036 10.8772 16.7882C10.7616 16.6727 10.6049 16.6078 10.4416 16.6076ZM6.83082 16.9503C6.68558 16.9399 6.54048 16.9725 6.41371 17.0442C6.28695 17.1158 6.18416 17.2233 6.11824 17.3532C6.05222 17.4835 6.02632 17.6306 6.0438 17.7757C6.06128 17.9208 6.12137 18.0574 6.21648 18.1684C6.31158 18.2794 6.43744 18.3597 6.57816 18.3992C6.71887 18.4387 6.86814 18.4356 7.00711 18.3904C7.14608 18.3451 7.26852 18.2597 7.35896 18.1449C7.44941 18.0301 7.50381 17.891 7.5153 17.7453C7.52679 17.5996 7.49484 17.4538 7.4235 17.3262C7.35216 17.1987 7.24462 17.0951 7.11446 17.0286C7.02571 16.9849 6.92946 16.9583 6.83082 16.9503ZM14.0523 16.9503C13.9531 16.9581 13.8562 16.9846 13.7669 17.0286C13.6762 17.0705 13.5949 17.1302 13.5279 17.2042C13.4609 17.2782 13.4095 17.3651 13.3768 17.4594C13.3442 17.5538 13.331 17.6538 13.3379 17.7534C13.3449 17.853 13.3719 17.9502 13.4174 18.0392C13.4628 18.1281 13.5258 18.2069 13.6025 18.2709C13.6791 18.3349 13.768 18.3827 13.8636 18.4115C13.9592 18.4403 14.0597 18.4495 14.1589 18.4385C14.2582 18.4275 14.3542 18.3966 14.4412 18.3476C14.6157 18.2583 14.7476 18.1035 14.808 17.917C14.8683 17.7305 14.8522 17.5277 14.7631 17.3532C14.6973 17.2236 14.5948 17.1163 14.4684 17.0447C14.342 16.973 14.1972 16.9402 14.0523 16.9503ZM4.85057 17.3584C4.70697 17.3536 4.56438 17.3841 4.4353 17.4472C4.30621 17.5103 4.19457 17.604 4.11015 17.7203C3.97397 17.9087 3.91802 18.1435 3.95455 18.3731C3.99108 18.6027 4.11711 18.8084 4.30504 18.9453C4.49344 19.0818 4.7283 19.1381 4.95811 19.1017C5.18792 19.0653 5.39393 18.9393 5.53095 18.7513C5.59876 18.6581 5.64754 18.5526 5.67449 18.4406C5.70144 18.3286 5.70604 18.2123 5.68802 18.0985C5.67 17.9848 5.62971 17.8757 5.56947 17.7775C5.50922 17.6793 5.4302 17.5939 5.33693 17.5263C5.19545 17.4226 5.02591 17.364 4.85057 17.3584ZM16.0325 17.3584C15.8572 17.364 15.6877 17.4226 15.5462 17.5263C15.4058 17.6284 15.2989 17.7699 15.2389 17.9328C15.1789 18.0957 15.1685 18.2727 15.2091 18.4415C15.2497 18.6102 15.3394 18.7632 15.4669 18.881C15.5945 18.9988 15.754 19.0761 15.9255 19.1032C16.097 19.1304 16.2726 19.106 16.4303 19.0333C16.5879 18.9606 16.7205 18.8428 16.8112 18.6948C16.9019 18.5468 16.9467 18.3752 16.9399 18.2018C16.9331 18.0283 16.875 17.8608 16.773 17.7203C16.6885 17.604 16.5769 17.5103 16.4478 17.4472C16.3187 17.3841 16.1761 17.3536 16.0325 17.3584ZM9.14691 17.729C8.97642 17.7371 8.8139 17.8035 8.68667 17.9173C8.55943 18.0311 8.47525 18.1852 8.44826 18.3537C8.43317 18.4497 8.43714 18.5477 8.45994 18.6421C8.48273 18.7365 8.52391 18.8256 8.58111 18.9041C8.63831 18.9826 8.71042 19.0491 8.79331 19.0998C8.87621 19.1504 8.96828 19.1843 9.06426 19.1993C9.16023 19.2144 9.25824 19.2105 9.35268 19.1877C9.44712 19.1649 9.53615 19.1237 9.61468 19.0665C9.69321 19.0093 9.75971 18.9372 9.81037 18.8543C9.86103 18.7714 9.89487 18.6793 9.90995 18.5834C9.94078 18.3898 9.8935 18.1919 9.77848 18.0331C9.66346 17.8744 9.49012 17.7678 9.29656 17.7368C9.24702 17.7296 9.19695 17.7276 9.14691 17.729ZM11.7379 17.7281C11.6281 17.723 11.5185 17.7424 11.4171 17.785C11.3157 17.8275 11.2251 17.8922 11.1518 17.9742C11.0785 18.0562 11.0245 18.1535 10.9936 18.259C10.9627 18.3646 10.9557 18.4757 10.9732 18.5842C11.0039 18.7781 11.1103 18.9518 11.269 19.0671C11.4278 19.1825 11.6259 19.23 11.8197 19.1993C12.0136 19.1687 12.1873 19.0622 12.3026 18.9035C12.418 18.7447 12.4655 18.5466 12.4349 18.3528C12.4086 18.1844 12.325 18.0303 12.1981 17.9165C12.0713 17.8027 11.909 17.7361 11.7388 17.7281M7.41289 18.72C7.21236 18.7388 7.0244 18.826 6.88047 18.9669C6.73654 19.1078 6.64537 19.2938 6.62223 19.4939C6.5991 19.6939 6.64539 19.8959 6.75337 20.0659C6.86135 20.2359 7.02445 20.3637 7.21538 20.4278C7.32496 20.4634 7.44047 20.4771 7.55532 20.468C7.67017 20.459 7.78212 20.4274 7.88476 20.3751C7.98741 20.3228 8.07875 20.2507 8.15356 20.1631C8.22838 20.0755 8.2852 19.974 8.32079 19.8645C8.35638 19.7549 8.37004 19.6394 8.36099 19.5246C8.35194 19.4097 8.32036 19.2978 8.26805 19.1951C8.21574 19.0925 8.14372 19.0011 8.0561 18.9263C7.96849 18.8515 7.867 18.7947 7.75743 18.7591C7.64637 18.7231 7.5292 18.7098 7.41289 18.72ZM13.472 18.72C13.3557 18.7098 13.2385 18.7231 13.1274 18.7591C12.9061 18.8309 12.7222 18.9875 12.6162 19.1946C12.5102 19.4018 12.4906 19.6425 12.5619 19.864C12.6392 20.0785 12.7968 20.2546 13.0015 20.355C13.2062 20.4554 13.4419 20.4723 13.6589 20.4022C13.8758 20.3321 14.057 20.1804 14.1642 19.9791C14.2714 19.7779 14.2961 19.5429 14.2333 19.3238C14.1798 19.1594 14.0791 19.0145 13.9437 18.9071C13.8083 18.7997 13.6442 18.7346 13.472 18.72ZM10.4416 19.1846C10.2155 19.1946 10.002 19.2915 9.8456 19.455C9.68919 19.6186 9.60189 19.8361 9.60189 20.0624C9.60189 20.2887 9.68919 20.5062 9.8456 20.6698C10.002 20.8333 10.2155 20.9302 10.4416 20.9403C10.5568 20.9404 10.6709 20.9178 10.7773 20.8737C10.8838 20.8297 10.9805 20.7651 11.062 20.6836C11.1434 20.6022 11.208 20.5055 11.252 20.399C11.2961 20.2926 11.3187 20.1785 11.3186 20.0633C11.3186 19.5795 10.927 19.1846 10.4416 19.1846Z" fill="#34363B"/>
<path d="M33.6466 18H30.4728V3.0078H36.3402C40.1196 3.0078 42.312 4.76176 42.312 7.87296C42.312 9.89836 41.0592 11.5062 38.9294 12.2161L42.7923 18H39.0129L35.6303 12.6964H33.6466V18ZM33.6466 5.63874V10.0863H36.194C38.115 10.0863 39.1382 9.33459 39.1382 7.87296C39.1382 6.39044 38.115 5.63874 36.194 5.63874H33.6466ZM50.9321 18V16.6219C50.2013 17.6659 49.0946 18.2088 47.5703 18.2088C45.2526 18.2088 43.7074 16.8516 43.7074 14.7635C43.7074 12.5919 45.4614 11.4226 48.7188 11.4226C49.3452 11.4226 49.8881 11.4644 50.5771 11.5479V10.8797C50.5771 9.62692 49.8672 8.8961 48.6561 8.8961C47.4033 8.8961 46.6516 9.62692 46.5472 10.8797H43.9371C44.1042 8.31145 45.9625 6.64101 48.6561 6.64101C51.5794 6.64101 53.2916 8.24881 53.2916 10.9842V18H50.9321ZM46.4428 14.68C46.4428 15.6196 47.111 16.2043 48.1967 16.2043C49.6793 16.2043 50.5771 15.3899 50.5771 14.0953V13.3019C49.8881 13.1975 49.4078 13.1557 48.9067 13.1557C47.2571 13.1557 46.4428 13.6777 46.4428 14.68ZM65.4488 6.84981L60.0198 22.0299H56.8669L58.4538 17.8747L54.0689 6.84981H57.201L59.999 14.4921L62.5464 6.84981H65.4488ZM71.033 18.2088C67.8174 18.2088 65.6041 15.8284 65.6041 12.4249C65.6041 9.08403 67.9009 6.64101 71.033 6.64101C73.9354 6.64101 76.0861 8.60377 76.441 11.6106H73.3925C73.2463 10.1281 72.3485 9.20931 71.033 9.20931C69.5296 9.20931 68.5691 10.4413 68.5691 12.4249C68.5691 14.4294 69.5087 15.6405 71.033 15.6405C72.3694 15.6405 73.2255 14.7635 73.3925 13.2392H76.441C76.107 16.3087 74.0189 18.2088 71.033 18.2088ZM84.9445 18V16.6219C84.2137 17.6659 83.107 18.2088 81.5827 18.2088C79.265 18.2088 77.7198 16.8516 77.7198 14.7635C77.7198 12.5919 79.4738 11.4226 82.7311 11.4226C83.3576 11.4226 83.9004 11.4644 84.5895 11.5479V10.8797C84.5895 9.62692 83.8796 8.8961 82.6685 8.8961C81.4157 8.8961 80.664 9.62692 80.5596 10.8797H77.9495C78.1165 8.31145 79.9749 6.64101 82.6685 6.64101C85.5918 6.64101 87.304 8.24881 87.304 10.9842V18H84.9445ZM80.4552 14.68C80.4552 15.6196 81.1233 16.2043 82.2091 16.2043C83.6916 16.2043 84.5895 15.3899 84.5895 14.0953V13.3019C83.9004 13.1975 83.4202 13.1557 82.9191 13.1557C81.2695 13.1557 80.4552 13.6777 80.4552 14.68ZM99.2222 14.4294C99.2222 16.7681 97.4473 18.2088 94.2735 18.2088C91.0996 18.2088 89.3248 16.6845 89.0951 14.1997H91.8722C91.8931 15.3482 92.8745 16.079 94.3152 16.079C95.4428 16.079 96.2989 15.724 96.2989 14.9306C96.2989 14.2206 95.8395 13.9283 94.7746 13.7195L92.7701 13.3436C90.7656 12.9887 89.5545 11.882 89.5545 10.1489C89.5545 8.08176 91.3293 6.64101 94.1064 6.64101C96.9044 6.64101 98.8254 8.12352 99.0342 10.5248H96.2571C96.1527 9.43899 95.3384 8.77082 94.1064 8.77082C93.0415 8.77082 92.3316 9.16755 92.3316 9.87748C92.3316 10.5457 92.791 10.8171 93.7932 11.005L95.9439 11.4018C98.1155 11.8194 99.2222 12.8216 99.2222 14.4294ZM107.912 15.1811V17.7077C107.202 18.0626 106.534 18.2088 105.678 18.2088C103.381 18.2088 101.94 16.8933 101.94 14.3877V9.33459H99.6848V6.84981H101.94V3.55069H104.821V6.84981H108.016V9.33459H104.821V13.7195C104.821 15.0141 105.406 15.5361 106.45 15.5361C106.993 15.5361 107.494 15.4108 107.912 15.1811Z" fill="#34363B"/>
</svg>
