<svg width="106" height="27" viewBox="0 0 106 27" fill="none" xmlns="http://www.w3.org/2000/svg">
<path fill-rule="evenodd" clip-rule="evenodd" d="M9.23123 2.55584C9.40043 2.45848 9.59236 2.40723 9.78773 2.40723C9.98311 2.40723 10.175 2.45848 10.3442 2.55584L12.5702 3.83706C12.8238 3.9852 13.0082 4.22729 13.0834 4.51048C13.1585 4.79368 13.1182 5.09499 12.9712 5.34867C12.8243 5.60235 12.5826 5.78779 12.299 5.86454C12.0153 5.94129 11.7127 5.90311 11.4572 5.75833L10.9007 5.43775V6.84432C10.9007 7.13851 10.7835 7.42066 10.5747 7.62869C10.366 7.83672 10.0829 7.9536 9.78773 7.9536C9.49255 7.9536 9.20945 7.83672 9.00072 7.62869C8.792 7.42066 8.67473 7.13851 8.67473 6.84432V5.43775L8.11823 5.75833C7.86273 5.90311 7.56015 5.94129 7.27651 5.86454C6.99287 5.78779 6.7512 5.60235 6.60424 5.34867C6.45729 5.09499 6.41697 4.79368 6.49209 4.51048C6.56722 4.22729 6.75168 3.9852 7.00523 3.83706L9.23123 2.55584ZM4.30286 6.67238C4.45045 6.92716 4.49044 7.22993 4.41405 7.5141C4.33766 7.79826 4.15113 8.04055 3.8955 8.18765L3.339 8.50823L4.56108 9.21152C4.68868 9.28382 4.80067 9.38057 4.8906 9.49619C4.98053 9.61181 5.04663 9.74401 5.08509 9.88519C5.12355 10.0264 5.13361 10.1737 5.11469 10.3188C5.09577 10.4639 5.04825 10.6038 4.97485 10.7305C4.90146 10.8572 4.80365 10.9681 4.68705 11.057C4.57045 11.1459 4.43736 11.2109 4.29546 11.2483C4.15355 11.2857 4.00562 11.2947 3.86019 11.2749C3.71477 11.2551 3.5747 11.2068 3.44808 11.1328L2.226 10.4295V11.0696C2.226 11.3638 2.10874 11.6459 1.90001 11.8539C1.69128 12.062 1.40819 12.1788 1.113 12.1788C0.817815 12.1788 0.534719 12.062 0.32599 11.8539C0.117262 11.6459 0 11.3638 0 11.0696V8.50823C0.000200197 8.31371 0.0517226 8.12265 0.149399 7.95424C0.247075 7.78583 0.387471 7.64597 0.556501 7.54871L2.7825 6.26749C3.03814 6.1204 3.34193 6.08054 3.62705 6.15667C3.91217 6.23281 4.15527 6.41872 4.30286 6.67349V6.67238ZM15.2726 6.67238C15.4202 6.41761 15.6633 6.2317 15.9484 6.15557C16.2335 6.07943 16.5373 6.11929 16.793 6.26638L19.019 7.5476C19.1882 7.64496 19.3287 7.78498 19.4263 7.95361C19.524 8.12224 19.5755 8.31352 19.5755 8.50823V11.0707C19.5755 11.3649 19.4582 11.647 19.2495 11.855C19.0407 12.0631 18.7577 12.1799 18.4625 12.1799C18.1673 12.1799 17.8842 12.0631 17.6755 11.855C17.4667 11.647 17.3495 11.3649 17.3495 11.0707V10.4295L16.1274 11.1328C15.8719 11.2776 15.5693 11.3158 15.2857 11.239C15.002 11.1623 14.7604 10.9768 14.6134 10.7231C14.4664 10.4694 14.4261 10.1681 14.5013 9.88494C14.5764 9.60175 14.7608 9.35966 15.0144 9.21152L16.2365 8.50823L15.68 8.18765C15.4243 8.04055 15.2378 7.79826 15.1614 7.5141C15.085 7.22993 15.125 6.92716 15.2726 6.67238ZM5.9323 11.2814C6.0799 11.0267 6.32299 10.8408 6.60811 10.7646C6.89323 10.6885 7.19702 10.7283 7.45266 10.8754L9.78773 12.2188L12.1228 10.8754C12.3783 10.7307 12.6809 10.6925 12.9645 10.7692C13.2482 10.846 13.4898 11.0314 13.6368 11.2851C13.7838 11.5388 13.8241 11.8401 13.7489 12.1233C13.6738 12.4065 13.4894 12.6486 13.2358 12.7967L10.9007 14.14V16.8278C10.9007 17.122 10.7835 17.4042 10.5747 17.6122C10.366 17.8202 10.0829 17.9371 9.78773 17.9371C9.49255 17.9371 9.20945 17.8202 9.00072 17.6122C8.792 17.4042 8.67473 17.122 8.67473 16.8278V14.14L6.33966 12.7967C6.08403 12.6496 5.8975 12.4073 5.82111 12.1232C5.74472 11.839 5.78471 11.5362 5.9323 11.2814ZM1.113 14.82C1.40819 14.82 1.69128 14.9369 1.90001 15.1449C2.10874 15.353 2.226 15.6351 2.226 15.9293V16.5705L3.44808 15.8672C3.70358 15.7224 4.00616 15.6842 4.2898 15.761C4.57344 15.8377 4.81511 16.0232 4.96207 16.2769C5.10902 16.5305 5.14934 16.8318 5.07421 17.115C4.99909 17.3982 4.81463 17.6403 4.56108 17.7885L3.339 18.4917L3.8955 18.8123C4.02311 18.8846 4.1351 18.9814 4.22503 19.097C4.31496 19.2126 4.38106 19.3448 4.41952 19.486C4.45797 19.6272 4.46803 19.7746 4.44911 19.9196C4.4302 20.0647 4.38267 20.2046 4.30928 20.3313C4.23589 20.458 4.13807 20.569 4.02147 20.6578C3.90487 20.7467 3.77179 20.8117 3.62988 20.8491C3.48798 20.8865 3.34005 20.8955 3.19462 20.8757C3.04919 20.8559 2.90913 20.8076 2.7825 20.7336L0.556501 19.4524C0.387307 19.355 0.246807 19.215 0.149121 19.0464C0.0514347 18.8777 4.96312e-06 18.6865 0 18.4917V15.9293C0 15.6351 0.117262 15.353 0.32599 15.1449C0.534719 14.9369 0.817815 14.82 1.113 14.82ZM18.4625 14.82C18.7577 14.82 19.0407 14.9369 19.2495 15.1449C19.4582 15.353 19.5755 15.6351 19.5755 15.9293V18.4917C19.5755 18.6865 19.524 18.8777 19.4263 19.0464C19.3287 19.215 19.1882 19.355 19.019 19.4524L16.793 20.7336C16.6663 20.8076 16.5263 20.8559 16.3808 20.8757C16.2354 20.8955 16.0875 20.8865 15.9456 20.8491C15.8037 20.8117 15.6706 20.7467 15.554 20.6578C15.4374 20.569 15.3396 20.458 15.2662 20.3313C15.1928 20.2046 15.1453 20.0647 15.1264 19.9196C15.1074 19.7746 15.1175 19.6272 15.156 19.486C15.1944 19.3448 15.2605 19.2126 15.3504 19.097C15.4404 18.9814 15.5524 18.8846 15.68 18.8123L16.2365 18.4917L15.0144 17.7885C14.8868 17.7162 14.7748 17.6194 14.6849 17.5038C14.5949 17.3882 14.5288 17.256 14.4904 17.1148C14.4519 16.9736 14.4419 16.8262 14.4608 16.6812C14.4797 16.5361 14.5272 16.3962 14.6006 16.2695C14.674 16.1428 14.7718 16.0318 14.8884 15.943C15.005 15.8541 15.1381 15.7891 15.28 15.7517C15.4219 15.7143 15.5698 15.7053 15.7153 15.7251C15.8607 15.7449 16.0008 15.7932 16.1274 15.8672L17.3495 16.5705V15.9304C17.3495 15.6362 17.4667 15.3541 17.6755 15.146C17.8842 14.938 18.1673 14.8211 18.4625 14.8211V14.82ZM9.78773 19.0464C10.0829 19.0464 10.366 19.1633 10.5747 19.3713C10.7835 19.5793 10.9007 19.8615 10.9007 20.1557V21.5622L11.4572 21.2417C11.5839 21.1677 11.7239 21.1194 11.8694 21.0996C12.0148 21.0797 12.1627 21.0888 12.3046 21.1262C12.4465 21.1636 12.5796 21.2286 12.6962 21.3174C12.8128 21.4063 12.9106 21.5173 12.984 21.644C13.0574 21.7707 13.1049 21.9106 13.1238 22.0556C13.1428 22.2007 13.1327 22.3481 13.0942 22.4893C13.0558 22.6304 12.9897 22.7626 12.8998 22.8783C12.8098 22.9939 12.6978 23.0906 12.5702 23.1629L10.3442 24.4441C10.175 24.5415 9.98311 24.5928 9.78773 24.5928C9.59236 24.5928 9.40043 24.5415 9.23123 24.4441L7.00523 23.1629C6.87763 23.0906 6.76564 22.9939 6.67571 22.8783C6.58577 22.7626 6.51968 22.6304 6.48122 22.4893C6.44276 22.3481 6.4327 22.2007 6.45162 22.0556C6.47054 21.9106 6.51806 21.7707 6.59146 21.644C6.66485 21.5173 6.76266 21.4063 6.87926 21.3174C6.99586 21.2286 7.12895 21.1636 7.27085 21.1262C7.41276 21.0888 7.56069 21.0797 7.70612 21.0996C7.85154 21.1194 7.9916 21.1677 8.11823 21.2417L8.67473 21.5622V20.1557C8.67473 19.8615 8.792 19.5793 9.00072 19.3713C9.20945 19.1633 9.49255 19.0464 9.78773 19.0464Z" fill="#34363B"/>
<path d="M32.0118 21H29.7932C29.4626 21 29.219 20.9217 29.0624 20.7651C28.9058 20.5911 28.8275 20.2605 28.8275 19.7733V11.1079C29.2799 10.9861 29.9237 10.8556 30.7589 10.7164C31.6116 10.5771 32.586 10.5075 33.6822 10.5075C34.8132 10.5075 35.7007 10.5771 36.3445 10.7164C36.9883 10.8556 37.4581 11.0557 37.7539 11.3167C38.0671 11.5777 38.2672 11.9083 38.3542 12.3085C38.4412 12.7087 38.4847 13.1872 38.4847 13.744H35.457V13.3786C35.4396 12.961 35.3439 12.6565 35.1699 12.4651C34.9959 12.2737 34.7784 12.1606 34.5174 12.1258C34.2564 12.0736 33.9954 12.0475 33.7344 12.0475C33.3516 12.0475 33.0036 12.091 32.6904 12.178C32.3946 12.2476 32.1684 12.352 32.0118 12.4912V21ZM45.7531 21.1566C44.6047 21.1566 43.6564 21.087 42.9082 20.9478C42.1599 20.7912 41.5683 20.5302 41.1333 20.1648C40.6983 19.7994 40.3851 19.2774 40.1937 18.5987C40.0023 17.9201 39.9066 17.0501 39.9066 15.9887C39.9066 14.6662 40.0806 13.6048 40.4286 12.8044C40.794 12.004 41.4204 11.4211 42.3078 11.0557C43.2127 10.6903 44.4655 10.5075 46.0663 10.5075C47.3192 10.5075 48.3197 10.6468 49.0679 10.9252C49.8161 11.2036 50.3555 11.6473 50.6862 12.2563C51.0168 12.8479 51.1821 13.6135 51.1821 14.5531V16.3802H43.8739C43.8739 16.067 43.9435 15.806 44.0827 15.5972C44.2393 15.371 44.509 15.2579 44.8918 15.2579H48.3371V14.6314C48.3197 13.7962 48.137 13.1785 47.789 12.7783C47.4584 12.3781 46.8494 12.178 45.9619 12.178C45.2137 12.178 44.6308 12.2911 44.2132 12.5173C43.813 12.7435 43.5259 13.1263 43.3519 13.6657C43.1953 14.2051 43.117 14.9621 43.117 15.9365C43.117 16.8761 43.2127 17.5895 43.4041 18.0767C43.5955 18.5639 43.9261 18.8945 44.3959 19.0686C44.8831 19.2252 45.553 19.3035 46.4056 19.3035C46.7189 19.3035 47.1104 19.2948 47.5802 19.2774C48.0674 19.26 48.5546 19.2426 49.0418 19.2252C49.5464 19.1904 49.9901 19.1556 50.3729 19.1208C50.7558 19.0686 50.9994 19.0251 51.1038 18.9903V19.4079C51.1038 19.6167 51.0603 19.8429 50.9733 20.0865C50.9037 20.3127 50.7384 20.4954 50.4773 20.6346C50.1467 20.8434 49.5899 20.9826 48.8069 21.0522C48.0413 21.1218 47.0234 21.1566 45.7531 21.1566ZM54.4465 21C53.9593 21 53.6374 20.9304 53.4808 20.7912C53.3241 20.6346 53.2458 20.304 53.2458 19.7994V11.2906C53.4721 11.2036 53.7679 11.1253 54.1333 11.0557C54.4987 10.9687 54.9076 10.8904 55.36 10.8208C55.8124 10.7338 56.2909 10.6642 56.7955 10.612C57.3175 10.5597 57.8309 10.5336 58.3355 10.5336C58.9967 10.5336 59.5622 10.5858 60.032 10.6903C60.5192 10.7947 60.9281 10.9861 61.2587 11.2645C61.6067 11.5255 61.9026 11.917 62.1462 12.439H61.6502C61.8069 12.0388 62.0244 11.7169 62.3028 11.4733C62.5812 11.2123 62.9118 11.0209 63.2946 10.8991C63.6774 10.7599 64.0602 10.6642 64.443 10.612C64.8258 10.5597 65.1738 10.5336 65.487 10.5336C66.6181 10.5336 67.5055 10.6381 68.1493 10.8469C68.7931 11.0383 69.2542 11.3863 69.5326 11.8909C69.8284 12.3781 69.9763 13.0654 69.9763 13.9528V19.9038C69.9763 20.3736 69.8893 20.6781 69.7153 20.8173C69.5587 20.9391 69.2455 21 68.7757 21H66.7921C66.7921 19.7994 66.7921 18.6074 66.7921 17.4242C66.7921 16.241 66.7921 15.0491 66.7921 13.8484C66.7921 13.135 66.6442 12.6652 66.3484 12.439C66.0526 12.1954 65.6088 12.0736 65.0172 12.0736C64.7388 12.0736 64.4604 12.1171 64.182 12.2041C63.9036 12.2737 63.6687 12.3781 63.4773 12.5173C63.3033 12.6565 63.2163 12.8218 63.2163 13.0132V21H60.032V13.4308C60.032 12.9958 59.8667 12.6739 59.5361 12.4651C59.2055 12.2389 58.7705 12.1258 58.2311 12.1258C57.9005 12.1258 57.6047 12.1519 57.3436 12.2041C57.0826 12.2389 56.8651 12.3085 56.6911 12.4129C56.5345 12.4999 56.4475 12.6217 56.4301 12.7783V21H54.4465ZM77.8424 21.1566C76.9202 21.1566 76.1024 21.0957 75.389 20.9739C74.6755 20.8347 74.0665 20.5824 73.5619 20.217C73.0747 19.8342 72.7006 19.2861 72.4396 18.5726C72.1786 17.8592 72.0481 16.937 72.0481 15.806C72.0481 14.6749 72.1786 13.7527 72.4396 13.0393C72.7006 12.3259 73.0747 11.7865 73.5619 11.4211C74.0665 11.0383 74.6755 10.786 75.389 10.6642C76.1024 10.5249 76.9202 10.4553 77.8424 10.4553C78.782 10.4553 79.5999 10.5249 80.2959 10.6642C81.0093 10.786 81.6096 11.0383 82.0968 11.4211C82.584 11.7865 82.9494 12.3259 83.1931 13.0393C83.4541 13.7527 83.5846 14.6749 83.5846 15.806C83.5846 16.9544 83.4541 17.8853 83.1931 18.5987C82.9494 19.2948 82.584 19.8342 82.0968 20.217C81.6096 20.5824 81.0093 20.8347 80.2959 20.9739C79.5825 21.0957 78.7646 21.1566 77.8424 21.1566ZM77.8424 19.5645C78.3992 19.5645 78.8603 19.4688 79.2258 19.2774C79.6086 19.086 79.8957 18.7205 80.0871 18.1811C80.2785 17.6417 80.3742 16.85 80.3742 15.806C80.3742 14.762 80.2785 13.9702 80.0871 13.4308C79.8957 12.8914 79.6086 12.526 79.2258 12.3346C78.8603 12.1432 78.3992 12.0475 77.8424 12.0475C77.303 12.0475 76.8419 12.1432 76.4591 12.3346C76.0763 12.526 75.7805 12.8914 75.5717 13.4308C75.3629 13.9702 75.2585 14.762 75.2585 15.806C75.2585 16.85 75.3629 17.6417 75.5717 18.1811C75.7805 18.7205 76.0763 19.086 76.4591 19.2774C76.8419 19.4688 77.303 19.5645 77.8424 19.5645ZM89.448 21.1044C88.6302 21.1044 87.9864 21.0174 87.5166 20.8434C87.0642 20.652 86.7423 20.3475 86.5509 19.9299C86.3595 19.4949 86.2638 18.9032 86.2638 18.155V12.2563H85.1936V10.5858H86.2638V9.04591C86.2638 8.6805 86.2899 8.4108 86.3421 8.23679C86.3943 8.06279 86.4987 7.94969 86.6553 7.89748C86.8293 7.84528 87.0816 7.81918 87.4122 7.81918H89.448C89.448 7.87138 89.4393 7.95839 89.4219 8.08019C89.4219 8.18459 89.4219 8.3238 89.4219 8.4978V10.5858H91.9276V12.2563H89.448V17.8679C89.448 18.5465 89.5089 19.0425 89.6307 19.3557C89.7699 19.6515 90.1179 19.7994 90.6748 19.7994C90.8488 19.7994 91.0489 19.782 91.2751 19.7472C91.5187 19.7124 91.684 19.6776 91.771 19.6428V20.8695C91.6666 20.8869 91.4056 20.9304 90.988 21C90.5704 21.0696 90.057 21.1044 89.448 21.1044ZM99.1014 21.1566C97.953 21.1566 97.0046 21.087 96.2564 20.9478C95.5082 20.7912 94.9166 20.5302 94.4816 20.1648C94.0466 19.7994 93.7334 19.2774 93.5419 18.5987C93.3505 17.9201 93.2548 17.0501 93.2548 15.9887C93.2548 14.6662 93.4288 13.6048 93.7769 12.8044C94.1423 12.004 94.7687 11.4211 95.6561 11.0557C96.5609 10.6903 97.8137 10.5075 99.4146 10.5075C100.667 10.5075 101.668 10.6468 102.416 10.9252C103.164 11.2036 103.704 11.6473 104.034 12.2563C104.365 12.8479 104.53 13.6135 104.53 14.5531V16.3802H97.2221C97.2221 16.067 97.2917 15.806 97.4309 15.5972C97.5875 15.371 97.8572 15.2579 98.2401 15.2579H101.685V14.6314C101.668 13.7962 101.485 13.1785 101.137 12.7783C100.807 12.3781 100.198 12.178 99.3102 12.178C98.562 12.178 97.9791 12.2911 97.5614 12.5173C97.1612 12.7435 96.8741 13.1263 96.7001 13.6657C96.5435 14.2051 96.4652 14.9621 96.4652 15.9365C96.4652 16.8761 96.5609 17.5895 96.7523 18.0767C96.9437 18.5639 97.2743 18.8945 97.7441 19.0686C98.2314 19.2252 98.9013 19.3035 99.7539 19.3035C100.067 19.3035 100.459 19.2948 100.928 19.2774C101.416 19.26 101.903 19.2426 102.39 19.2252C102.895 19.1904 103.338 19.1556 103.721 19.1208C104.104 19.0686 104.348 19.0251 104.452 18.9903V19.4079C104.452 19.6167 104.409 19.8429 104.322 20.0865C104.252 20.3127 104.087 20.4954 103.826 20.6346C103.495 20.8434 102.938 20.9826 102.155 21.0522C101.39 21.1218 100.372 21.1566 99.1014 21.1566Z" fill="#34363B"/>
</svg>
