<svg width="110" height="26" viewBox="0 0 110 26" fill="none" xmlns="http://www.w3.org/2000/svg">
<path d="M10.4167 1.55975L0.00235896 6.88846V7.06281L2.9863 5.61475L3.28115 5.8768H3.30003L5.04321 5.06559L5.24961 5.43204L11.6032 2.16424L10.4167 1.55975ZM12.0431 2.38871L0.0106149 8.52758V8.78858L2.99455 7.24551L3.28941 7.61092L6.68969 5.88724L6.89609 6.25265L13.2838 3.02139L12.0431 2.38871ZM13.7627 3.26569L0.0106149 10.2534V10.4267L2.99455 8.97964L3.28941 9.33774H3.3012L8.33262 6.70471L8.53902 7.07012L14.9044 3.84721L13.7627 3.26569ZM15.3985 4.09882L0 11.8914V12.1535L2.98512 10.6104L3.27998 10.9758H3.30003L9.97792 7.62032L10.1843 7.89072L16.539 4.6793L15.3985 4.09882ZM17.0167 4.9236L0.0106149 13.6099V13.8009L2.99455 12.3456L3.28941 12.6149H3.3012L11.622 8.43048L11.8284 8.70193L18.2421 5.54793L17.0167 4.9236ZM18.6337 5.74734L0.0106149 15.2574V15.5278L2.99455 13.9847L3.28941 14.3418H3.3012L13.2673 9.25004L13.4737 9.6165L19.8686 6.37689L18.6337 5.74734ZM20.2613 6.57629L0.0106149 16.9831V17.1575L2.99455 15.7105L3.28941 16.0759L13.2673 10.8892L13.4737 11.2556L20.8805 7.52427V6.89263L20.2613 6.57629ZM2.99338 17.3496L1.34808 18.2558L1.03317 18.0721L20.8805 7.97007V9.16443L13.4737 12.9835L13.2661 12.6181L3.19152 17.7087L2.99338 17.3496ZM13.4725 14.7082L13.265 14.3418L4.93353 18.5262L4.63867 18.1692L2.99338 19.067L2.67847 18.9793L20.8793 9.62485V10.7931L13.4725 14.7082ZM6.38304 19.0743L4.63867 19.8939L4.62924 19.8855L4.33438 19.7978L20.8805 11.3412V12.5272L13.4737 16.3463L13.2768 15.9798L6.57882 19.4397L6.38304 19.0743ZM8.02715 19.8939L6.28397 20.7134V20.6957L5.96906 20.609L20.8805 12.9803V14.2541L13.4737 18.0721L13.2661 17.7066L8.22412 20.2603L8.02715 19.8939ZM7.91865 21.6197L7.61318 21.4369L20.8805 14.7072V15.8932L13.4737 19.7112L13.2661 19.3458L9.86941 21.0705L9.67245 20.7145L7.91865 21.6197ZM11.2092 21.533L9.56158 22.4403L9.35636 22.3526L20.8793 16.3473V17.621L13.4725 21.439L13.265 21.0726L11.523 21.8911L11.2092 21.533Z" fill="#34363B"/>
<path d="M33.7185 14.9159V21H30.4533V8.45604H33.4601V10.8756C34.3762 9.27821 36.3259 8.31509 38.3461 8.31509V11.6977C35.5742 11.4863 33.7185 12.1441 33.7185 14.9159ZM47.6766 15.7146V8.45604H50.9183V21H47.935V19.3557C47.2538 20.4597 45.8679 21.2349 44.2705 21.2349C41.757 21.2349 39.9247 19.708 39.9247 16.4428V8.45604H43.1899V15.8086C43.1899 17.5704 44.0591 18.3456 45.3746 18.3456C46.5491 18.3456 47.6766 17.4059 47.6766 15.7146ZM57.1173 14.1642V21H53.8521V8.45604H56.8589V10.2413C57.775 8.99632 59.067 8.22113 60.7113 8.22113C63.2248 8.22113 64.9631 9.86547 64.9631 12.8958V21H61.7214V13.9998C61.7214 12.1441 60.9932 11.1105 59.5133 11.1105C58.2213 11.1105 57.1173 12.1441 57.1173 14.1642ZM77.6067 21L75.2342 12.8488L72.8851 21H69.6199L66.0494 8.45604H69.2206L71.3582 16.3958L73.6603 8.45604H76.8785L79.1101 16.3958L81.2243 8.45604H84.4425L80.8484 21H77.6067ZM93.1169 21V19.4496C92.2948 20.6242 91.0498 21.2349 89.335 21.2349C86.7275 21.2349 84.9892 19.708 84.9892 17.359C84.9892 14.9159 86.9624 13.6005 90.6269 13.6005C91.3317 13.6005 91.9424 13.6475 92.7176 13.7414V12.9897C92.7176 11.5803 91.9189 10.7581 90.5565 10.7581C89.147 10.7581 88.3014 11.5803 88.1839 12.9897H85.2476C85.4355 10.1004 87.5262 8.22113 90.5565 8.22113C93.8451 8.22113 95.7714 10.0299 95.7714 13.1072V21H93.1169ZM88.0665 17.265C88.0665 18.3221 88.8182 18.9798 90.0397 18.9798C91.7075 18.9798 92.7176 18.0637 92.7176 16.6073V15.7146C91.9424 15.5972 91.4021 15.5502 90.8384 15.5502C88.9826 15.5502 88.0665 16.1375 88.0665 17.265ZM109.448 8.45604L103.341 25.5337H99.7936L101.579 20.8591L96.6458 8.45604H100.169L103.317 17.0536L106.183 8.45604H109.448Z" fill="#34363B"/>
</svg>
