<svg width="40" height="40" viewBox="0 0 40 40" fill="none" xmlns="http://www.w3.org/2000/svg">
<path d="M8.33325 26.6667L16.6666 21.6667M23.3333 18.3333L31.6666 13.3333M19.9999 8.33334V16.6667M19.9999 23.3333V31.6667M8.33325 13.3333L16.6666 18.3333M23.3333 21.6667L31.6666 26.6667M34.1666 15V24.1667M22.4999 34.1667L31.6666 29.1667M7.49992 29.1667L17.4999 34.1667M5.83325 25V15M7.49992 10.8333L17.4999 5.83334M32.4999 10.8333L22.4999 5.83334" stroke="#2FBF7E" stroke-width="2" stroke-linejoin="round"/>
<path d="M20 8.33334C21.3807 8.33334 22.5 7.21406 22.5 5.83334C22.5 4.45263 21.3807 3.33334 20 3.33334C18.6193 3.33334 17.5 4.45263 17.5 5.83334C17.5 7.21406 18.6193 8.33334 20 8.33334Z" stroke="#2FBF7E" stroke-width="2" stroke-linejoin="round"/>
<path d="M20 36.6667C21.3807 36.6667 22.5 35.5474 22.5 34.1667C22.5 32.786 21.3807 31.6667 20 31.6667C18.6193 31.6667 17.5 32.786 17.5 34.1667C17.5 35.5474 18.6193 36.6667 20 36.6667Z" stroke="#2FBF7E" stroke-width="2" stroke-linejoin="round"/>
<path d="M5.83325 15C7.21396 15 8.33325 13.8807 8.33325 12.5C8.33325 11.1193 7.21396 10 5.83325 10C4.45254 10 3.33325 11.1193 3.33325 12.5C3.33325 13.8807 4.45254 15 5.83325 15Z" stroke="#2FBF7E" stroke-width="2" stroke-linejoin="round"/>
<path d="M34.1665 15C35.5472 15 36.6665 13.8807 36.6665 12.5C36.6665 11.1193 35.5472 10 34.1665 10C32.7858 10 31.6665 11.1193 31.6665 12.5C31.6665 13.8807 32.7858 15 34.1665 15Z" stroke="#2FBF7E" stroke-width="2" stroke-linejoin="round"/>
<path d="M34.1665 30C35.5472 30 36.6665 28.8807 36.6665 27.5C36.6665 26.1193 35.5472 25 34.1665 25C32.7858 25 31.6665 26.1193 31.6665 27.5C31.6665 28.8807 32.7858 30 34.1665 30Z" stroke="#2FBF7E" stroke-width="2" stroke-linejoin="round"/>
<path d="M5.83325 30C7.21396 30 8.33325 28.8807 8.33325 27.5C8.33325 26.1193 7.21396 25 5.83325 25C4.45254 25 3.33325 26.1193 3.33325 27.5C3.33325 28.8807 4.45254 30 5.83325 30Z" stroke="#2FBF7E" stroke-width="2" stroke-linejoin="round"/>
<path d="M19.9998 16.25L23.3332 18.125V21.875L19.9998 23.75L16.6665 21.875V18.125L19.9998 16.25Z" stroke="#2FBF7E" stroke-width="2" stroke-linejoin="round"/>
</svg>
