<svg width="40" height="40" viewBox="0 0 40 40" fill="none" xmlns="http://www.w3.org/2000/svg">
<path d="M20 6.25C19.1712 6.25 18.3763 6.57924 17.7903 7.16529C17.2042 7.75134 16.875 8.5462 16.875 9.375C16.875 10.2038 17.2042 10.9987 17.7903 11.5847C18.3763 12.1708 19.1712 12.5 20 12.5C20.8288 12.5 21.6237 12.1708 22.2097 11.5847C22.7958 10.9987 23.125 10.2038 23.125 9.375C23.125 8.5462 22.7958 7.75134 22.2097 7.16529C21.6237 6.57924 20.8288 6.25 20 6.25ZM14.375 9.375C14.375 7.88316 14.9676 6.45242 16.0225 5.39752C17.0774 4.34263 18.5082 3.75 20 3.75C21.4918 3.75 22.9226 4.34263 23.9775 5.39752C25.0324 6.45242 25.625 7.88316 25.625 9.375C25.625 10.8668 25.0324 12.2976 23.9775 13.3525C22.9226 14.4074 21.4918 15 20 15C18.5082 15 17.0774 14.4074 16.0225 13.3525C14.9676 12.2976 14.375 10.8668 14.375 9.375ZM7.5 10C6.83696 10 6.20107 10.2634 5.73223 10.7322C5.26339 11.2011 5 11.837 5 12.5C5 13.163 5.26339 13.7989 5.73223 14.2678C6.20107 14.7366 6.83696 15 7.5 15C8.16304 15 8.79893 14.7366 9.26777 14.2678C9.73661 13.7989 10 13.163 10 12.5C10 11.837 9.73661 11.2011 9.26777 10.7322C8.79893 10.2634 8.16304 10 7.5 10ZM2.5 12.5C2.5 11.1739 3.02678 9.90215 3.96447 8.96447C4.90215 8.02678 6.17392 7.5 7.5 7.5C8.82608 7.5 10.0979 8.02678 11.0355 8.96447C11.9732 9.90215 12.5 11.1739 12.5 12.5C12.5 13.8261 11.9732 15.0979 11.0355 16.0355C10.0979 16.9732 8.82608 17.5 7.5 17.5C6.17392 17.5 4.90215 16.9732 3.96447 16.0355C3.02678 15.0979 2.5 13.8261 2.5 12.5ZM30 12.5C30 11.837 30.2634 11.2011 30.7322 10.7322C31.2011 10.2634 31.837 10 32.5 10C33.163 10 33.7989 10.2634 34.2678 10.7322C34.7366 11.2011 35 11.837 35 12.5C35 13.163 34.7366 13.7989 34.2678 14.2678C33.7989 14.7366 33.163 15 32.5 15C31.837 15 31.2011 14.7366 30.7322 14.2678C30.2634 13.7989 30 13.163 30 12.5ZM32.5 7.5C31.1739 7.5 29.9021 8.02678 28.9645 8.96447C28.0268 9.90215 27.5 11.1739 27.5 12.5C27.5 13.8261 28.0268 15.0979 28.9645 16.0355C29.9021 16.9732 31.1739 17.5 32.5 17.5C33.8261 17.5 35.0979 16.9732 36.0355 16.0355C36.9732 15.0979 37.5 13.8261 37.5 12.5C37.5 11.1739 36.9732 9.90215 36.0355 8.96447C35.0979 8.02678 33.8261 7.5 32.5 7.5ZM10.625 20.625C10.625 20.3467 10.6471 20.0754 10.6913 19.8113L4.81625 21.385C4.01583 21.5997 3.33347 22.1236 2.91926 22.8414C2.50505 23.5591 2.39291 24.412 2.6075 25.2125L3.74 29.4375C4.01336 30.4583 4.49937 31.4098 5.16617 32.2297C5.83297 33.0496 6.66551 33.7193 7.60921 34.1949C8.55292 34.6705 9.58649 34.9414 10.6422 34.9896C11.6979 35.0379 12.7518 34.8625 13.735 34.475C13.0593 33.8685 12.4753 33.167 12.0012 32.3925C10.7512 32.6521 9.44923 32.4237 8.36221 31.7541C7.27519 31.0845 6.48549 30.0244 6.155 28.7913L5.0225 24.5662C5.00113 24.487 4.99559 24.4042 5.0062 24.3228C5.01681 24.2414 5.04337 24.1628 5.08434 24.0917C5.12532 24.0205 5.17992 23.9581 5.24502 23.9081C5.31012 23.858 5.38445 23.8213 5.46375 23.8L10.625 22.4175V20.625ZM27.0712 34.7412C26.7973 34.6682 26.5277 34.5798 26.2638 34.4762C26.9399 33.8698 27.5244 33.1683 27.9988 32.3938C29.2486 32.6526 30.5501 32.4237 31.6366 31.7539C32.7231 31.0841 33.5123 30.0241 33.8425 28.7913L34.9738 24.565C35.0165 24.405 34.9941 24.2347 34.9114 24.0912C34.8286 23.9478 34.6924 23.8431 34.5325 23.8L29.375 22.4175V20.625C29.375 20.3483 29.3529 20.0775 29.3088 19.8125L35.18 21.385C35.9804 21.5997 36.6628 22.1236 37.077 22.8414C37.4912 23.5591 37.6033 24.412 37.3887 25.2125L36.2562 29.4375C35.7415 31.3588 34.4847 32.9969 32.7621 33.9916C31.0396 34.9862 28.9926 35.2559 27.0712 34.7412ZM15.625 17.5C14.7962 17.5 14.0013 17.8292 13.4153 18.4153C12.8292 19.0013 12.5 19.7962 12.5 20.625V27.5C12.5 29.4891 13.2902 31.3968 14.6967 32.8033C16.1032 34.2098 18.0109 35 20 35C21.9891 35 23.8968 34.2098 25.3033 32.8033C26.7098 31.3968 27.5 29.4891 27.5 27.5V20.625C27.5 19.7962 27.1708 19.0013 26.5847 18.4153C25.9987 17.8292 25.2038 17.5 24.375 17.5H15.625ZM15 20.625C15 20.4592 15.0658 20.3003 15.1831 20.1831C15.3003 20.0658 15.4592 20 15.625 20H24.375C24.5408 20 24.6997 20.0658 24.8169 20.1831C24.9342 20.3003 25 20.4592 25 20.625V27.5C25 28.8261 24.4732 30.0979 23.5355 31.0355C22.5979 31.9732 21.3261 32.5 20 32.5C18.6739 32.5 17.4021 31.9732 16.4645 31.0355C15.5268 30.0979 15 28.8261 15 27.5V20.625Z" fill="#2FBF7E"/>
</svg>
