<svg width="40" height="40" viewBox="0 0 40 40" fill="none" xmlns="http://www.w3.org/2000/svg">
<path d="M18.6902 2.17328C19.5482 1.94224 20.4521 1.94224 21.3101 2.17328C22.2864 2.43527 23.1418 3.09809 24.3376 4.02066L24.5168 4.16174L24.9601 4.5021C25.4886 4.90965 25.6588 5.03952 25.8379 5.13581C26.0126 5.22986 26.1947 5.30525 26.3843 5.36198C26.5791 5.4202 26.7896 5.45155 27.4525 5.5344L28.0056 5.60606L28.2317 5.63517C29.7298 5.8255 30.8024 5.9621 31.6802 6.46817C32.4505 6.91154 33.0909 7.54973 33.5321 8.32004C34.0382 9.19782 34.1748 10.2704 34.3651 11.7685L34.3942 11.9947L34.4659 12.5478C34.551 13.2106 34.5801 13.4211 34.6383 13.6159C34.695 13.807 34.7704 13.9898 34.8645 14.1645C34.9607 14.3414 35.0884 14.5116 35.4982 15.04L35.8385 15.4834L35.9796 15.6626C36.9022 16.8583 37.565 17.7137 37.827 18.69C38.0577 19.5477 38.0577 20.4523 37.827 21.31C37.565 22.2863 36.9022 23.1417 35.9796 24.3374L35.8385 24.5166L35.4982 24.96C35.0906 25.4884 34.9607 25.6586 34.8645 25.8377C34.7704 26.0124 34.695 26.1945 34.6383 26.3841C34.5801 26.5789 34.5487 26.7894 34.4659 27.4522L34.3942 28.0053L34.3651 28.2315C34.1748 29.7296 34.0382 30.8022 33.5321 31.68C33.0897 32.4504 32.4506 33.0894 31.6802 33.5318C30.8024 34.0379 29.7298 34.1745 28.2317 34.3648L28.0056 34.3939L27.4525 34.4656C26.7896 34.5507 26.5791 34.5798 26.3843 34.638C26.1942 34.6945 26.0104 34.7703 25.8357 34.8642C25.6588 34.9605 25.4886 35.0881 24.9601 35.4979L24.5168 35.8383L24.3376 35.9793C23.1418 36.9019 22.2864 37.5647 21.3101 37.8267C20.4521 38.0578 19.5482 38.0578 18.6902 37.8267C17.7138 37.5647 16.8584 36.9019 15.6627 35.9793L15.4835 35.8383L15.0402 35.4979C14.5117 35.0904 14.3415 34.9605 14.1646 34.8642C13.9899 34.7703 13.8061 34.6945 13.616 34.638C13.4212 34.5798 13.2107 34.5485 12.5478 34.4656L11.9947 34.3939L11.7686 34.3648C10.2705 34.1745 9.19788 34.0379 8.32009 33.5318C7.55034 33.0886 6.91147 32.4497 6.46821 31.68C5.96213 30.8022 5.82553 29.7296 5.6352 28.2315L5.60609 28.0053L5.53443 27.4522C5.44934 26.7894 5.42022 26.5789 5.362 26.3841C5.3055 26.194 5.22972 26.0102 5.13584 25.8355C5.03955 25.6586 4.91191 25.4884 4.50212 24.96L4.16175 24.5166L4.02068 24.3374C3.0981 23.1417 2.43527 22.2863 2.17328 21.31C1.94224 20.4519 1.94224 19.5481 2.17328 18.69C2.43527 17.7137 3.0981 16.8583 4.02068 15.6626L4.16175 15.4834L4.50212 15.04C4.90967 14.5116 5.03955 14.3414 5.13584 14.1645C5.22972 13.9898 5.3055 13.806 5.362 13.6159C5.42022 13.4211 5.45158 13.2106 5.53443 12.5478L5.60609 11.9947L5.6352 11.7685C5.82553 10.2704 5.96213 9.19782 6.46821 8.32004C6.91147 7.5503 7.55034 6.91143 8.32009 6.46817C9.19788 5.9621 10.2705 5.8255 11.7686 5.63517L11.9947 5.60606L12.5478 5.5344C13.2107 5.44931 13.4212 5.4202 13.616 5.36198C13.8061 5.30547 13.9899 5.22969 14.1646 5.13581C14.3415 5.03952 14.5117 4.91189 15.0402 4.5021L15.4835 4.16174L15.6627 4.02066C16.8584 3.09809 17.7138 2.43527 18.6902 2.17328ZM20.7279 4.33416C20.2512 4.20581 19.7491 4.20581 19.2724 4.33416C18.7842 4.46851 18.305 4.81112 16.8517 5.93299L16.4106 6.27335L16.3479 6.32262C15.9068 6.66299 15.5865 6.9093 15.235 7.10188C14.9215 7.27145 14.5913 7.40803 14.2497 7.50942C13.7846 7.62941 13.3106 7.71178 12.8322 7.75574L12.2791 7.8274C10.4586 8.06028 9.87638 8.15657 9.43748 8.40961C9.00923 8.65603 8.65384 9.01142 8.40742 9.43966C8.15662 9.87632 8.06033 10.4585 7.82521 12.279L7.75579 12.8321L7.74683 12.9128C7.70165 13.3637 7.6223 13.8106 7.50947 14.2496C7.40807 14.5912 7.27149 14.9214 7.10192 15.2349C6.90934 15.5887 6.66302 15.9066 6.32265 16.3478L6.27339 16.4105L5.93302 16.8516C4.81114 18.3049 4.46629 18.7841 4.33418 19.27C4.20542 19.7474 4.20542 20.2504 4.33418 20.7278C4.46853 21.2159 4.81114 21.6951 5.93302 23.1484L6.27339 23.5895L6.32265 23.6522C6.66302 24.0934 6.90934 24.4136 7.10192 24.7651C7.27211 25.0786 7.40795 25.4071 7.50947 25.7504C7.62367 26.1378 7.67517 26.5342 7.74683 27.0895L7.75579 27.1679L7.82745 27.721C8.06033 29.5415 8.15662 30.1237 8.40966 30.5626C8.65598 30.988 9.00978 31.3463 9.43972 31.5926C9.87638 31.8434 10.4586 31.9397 12.2791 32.1748L12.8322 32.2443L12.9128 32.2555C13.4637 32.3249 13.8623 32.3764 14.2497 32.4906C14.593 32.5921 14.9215 32.7279 15.235 32.8981C15.5888 33.0907 15.9068 33.337 16.3479 33.6774L16.4106 33.7266L16.8517 34.067C18.305 35.1889 18.7842 35.5337 19.2701 35.6658C19.7493 35.7935 20.2509 35.7935 20.7279 35.6658C21.2161 35.5337 21.6953 35.1889 23.1486 34.067L23.5897 33.7266L23.6524 33.6774C24.0935 33.337 24.4138 33.0907 24.7653 32.8981C25.0788 32.7279 25.4072 32.5921 25.7506 32.4906C26.2157 32.3706 26.6897 32.2882 27.1681 32.2443L27.7212 32.1726C29.5417 31.9397 30.1239 31.8434 30.5628 31.5904C30.9883 31.3441 31.3466 30.9903 31.5929 30.5603C31.8437 30.1237 31.94 29.5415 32.1751 27.721L32.2445 27.1679L32.2557 27.0872C32.3251 26.5364 32.3766 26.1378 32.4908 25.7504C32.5923 25.4071 32.7282 25.0786 32.8984 24.7651C33.0909 24.4113 33.3373 24.0934 33.6776 23.6522L33.7269 23.5895L34.0673 23.1484C35.1891 21.6951 35.534 21.2159 35.6661 20.73C35.7949 20.2526 35.7949 19.7496 35.6661 19.2722C35.534 18.7841 35.1891 18.3049 34.0673 16.8516L33.7269 16.4105L33.6776 16.3478C33.3901 15.9971 33.1296 15.625 32.8984 15.2349C32.7288 14.9214 32.5922 14.5912 32.4908 14.2496C32.3708 13.7845 32.2885 13.3105 32.2445 12.8321L32.1728 12.279C31.94 10.4585 31.8437 9.87632 31.5906 9.43743C31.3442 9.00918 30.9888 8.65379 30.5606 8.40737C30.1239 8.15657 29.5417 8.06028 27.7212 7.82516L27.1681 7.75574L27.0875 7.74679C26.6365 7.7016 26.1896 7.62225 25.7506 7.50942C25.409 7.40803 25.0788 7.27145 24.7653 7.10188C24.4115 6.9093 24.0935 6.66299 23.6524 6.32262L23.5897 6.27335L23.1486 5.93299C21.6953 4.81112 21.2161 4.46627 20.7301 4.33416" fill="#2FBF7E"/>
<path d="M20.0011 10C20.8281 10 21.4996 10.6712 21.4996 11.5005V13.001H21.5043C23.9948 13.001 25.9999 15.0123 25.9999 17.5002C26.0027 17.6945 25.9661 17.8875 25.8921 18.0681C25.8182 18.2487 25.7085 18.4133 25.5691 18.5527C25.4297 18.692 25.2635 18.8033 25.0799 18.8802C24.8963 18.957 24.6989 18.998 24.499 19.0007C24.0957 18.9946 23.7114 18.8332 23.4304 18.5519C23.1494 18.2705 22.9948 17.8923 23.0005 17.5002C23.0052 17.3057 22.97 17.1123 22.8971 16.9312C22.8241 16.7501 22.7149 16.5849 22.5756 16.4452C22.4364 16.3056 22.27 16.1943 22.086 16.1178C21.9021 16.0413 21.7044 16.0011 21.5043 15.9997H18.1185C17.9698 16.0012 17.8229 16.0312 17.6861 16.088C17.5493 16.1447 17.4254 16.2272 17.3214 16.3306C17.2175 16.434 17.1355 16.5564 17.0803 16.6906C17.025 16.8249 16.9975 16.9684 16.9994 17.113C16.9994 17.6697 17.1242 17.8232 17.1502 17.8575C17.1973 17.9171 17.3269 18.0293 17.7581 18.1782L23.2008 19.9811C23.8322 20.1942 24.5909 20.5378 25.1681 21.2365C25.7642 21.965 25.9999 22.8722 25.9999 23.8847C25.9999 26.1595 24.1526 27.999 21.8813 27.999H21.4996V29.4995C21.5053 29.8916 21.3506 30.2699 21.0697 30.5512C20.7887 30.8326 20.4044 30.994 20.0011 31C19.8012 30.9973 19.6038 30.9564 19.4202 30.8795C19.2366 30.8026 19.0704 30.6914 18.931 30.552C18.7916 30.4127 18.6819 30.248 18.6079 30.0674C18.534 29.8868 18.4974 29.6939 18.5002 29.4995V27.999H18.4955C16.0051 27.999 14 25.9854 14 23.4998C14 22.6706 14.6715 21.9993 15.5009 21.9993C16.3279 21.9993 16.9994 22.6706 16.9994 23.4998C16.9994 24.3337 17.6662 25.0003 18.4955 25.0003H21.8813C22.4986 25.0003 23.0005 24.4963 23.0005 23.8847C23.0005 23.3303 22.8756 23.1745 22.8497 23.1425C22.8026 23.0829 22.673 22.9684 22.2418 22.8218L16.7991 21.0189C16.1677 20.8058 15.409 20.4622 14.8317 19.7612C14.2356 19.035 14 18.1279 14 17.113C14 14.8405 15.8472 13.001 18.1185 13.001H18.5002V11.5005C18.5002 10.6712 19.1717 10 19.9987 10" fill="#2FBF7E"/>
</svg>
