<svg width="24" height="24" viewBox="0 0 24 24" fill="none" xmlns="http://www.w3.org/2000/svg">
<path d="M22 8.99979C22 7.34979 20.65 5.99979 19 5.99979C17.35 5.99979 16 7.34979 16 8.99979C16 9.36979 16.07 9.72979 16.2 10.0598L15.44 11.3298L14.42 6.75979C14.93 6.06979 15.12 5.18979 14.93 4.31979C14.7999 3.75797 14.5111 3.24535 14.0981 2.84292C13.685 2.4405 13.165 2.1652 12.6 2.04979C12.1645 1.96002 11.7145 1.96861 11.2827 2.07493C10.851 2.18125 10.4484 2.38261 10.1044 2.66433C9.76044 2.94605 9.48367 3.30102 9.29433 3.70333C9.10499 4.10564 9.00785 4.54515 9.01001 4.98979C9.01001 5.62979 9.22001 6.24979 9.59001 6.75979L8.57001 11.3298L7.81001 10.0598C7.94001 9.71979 8.01001 9.35979 8.01001 8.99979C8.01001 7.34979 6.66001 5.99979 5.01001 5.99979C3.36001 5.99979 2.01001 7.34979 2.01001 8.99979C2.01001 10.0598 2.57001 11.0198 3.46001 11.5598L4.45001 16.9998H4.01001C2.91001 16.9998 2.01001 17.8998 2.01001 18.9998V19.9998C2.01001 21.0998 2.91001 21.9998 4.01001 21.9998H20.01C21.11 21.9998 22.01 21.0998 22.01 19.9998V18.9998C22.01 17.8998 21.11 16.9998 20.01 16.9998H19.57L20.56 11.5598C21.0026 11.295 21.3688 10.9199 21.623 10.4712C21.8771 10.0225 22.0105 9.51549 22.01 8.99979H22ZM19.33 9.93979C18.99 10.0598 18.74 10.3498 18.68 10.7098L17.39 17.8298C17.34 18.1198 17.42 18.4198 17.61 18.6498C17.8 18.8798 18.08 19.0098 18.38 19.0098H20.02V20.0098H4.00001V19.0098H5.64001C5.94001 19.0098 6.22001 18.8798 6.41001 18.6498C6.60001 18.4198 6.68001 18.1198 6.63001 17.8298L5.34001 10.7098C5.28001 10.3598 5.03001 10.0598 4.69001 9.93979C4.29001 9.79979 4.02001 9.41979 4.02001 8.99979C4.02001 8.44979 4.47001 7.99979 5.02001 7.99979C5.57001 7.99979 6.02001 8.44979 6.02001 8.99979C6.02001 9.19979 5.96001 9.38979 5.85001 9.54979C5.64001 9.86979 5.63001 10.2898 5.82001 10.6198L8.16001 14.5098C8.37001 14.8598 8.77001 15.0498 9.18001 14.9798C9.58001 14.9098 9.91001 14.6098 10 14.2098L11.67 6.68979C11.7091 6.51667 11.701 6.33623 11.6465 6.16734C11.5919 5.99845 11.493 5.84733 11.36 5.72979C11.2536 5.63803 11.1682 5.52445 11.1095 5.39678C11.0508 5.2691 11.0203 5.1303 11.02 4.98979C11.02 4.68979 11.15 4.40979 11.39 4.21979C11.53 4.10979 11.82 3.92979 12.24 4.00979C12.6 4.07979 12.92 4.38979 13 4.74979C13.12 5.26979 12.82 5.60979 12.69 5.72979C12.42 5.96979 12.3 6.33979 12.38 6.68979L14.05 14.2098C14.14 14.6098 14.46 14.9198 14.87 14.9798C15.28 15.0398 15.68 14.8598 15.89 14.5098L18.23 10.6198C18.43 10.2898 18.42 9.86979 18.2 9.54979C18.0907 9.38708 18.0315 9.19582 18.03 8.99979C18.03 8.44979 18.48 7.99979 19.03 7.99979C19.58 7.99979 20.03 8.44979 20.03 8.99979C20.03 9.41979 19.76 9.79979 19.36 9.93979H19.33Z" fill="#4E4BFF"/>
</svg>
