<svg width="24" height="24" viewBox="0 0 24 24" fill="none" xmlns="http://www.w3.org/2000/svg">
<path d="M21.6472 2.52229C21.6393 2.48382 21.6205 2.44842 21.5931 2.42027C21.5657 2.39212 21.5308 2.37238 21.4925 2.36338C18.9435 1.73994 13.055 3.96135 9.86144 7.1526C9.29229 7.71711 8.77331 8.33004 8.31035 8.98447C7.32598 8.89541 6.3416 8.97041 5.50348 9.33604C3.13676 10.3767 2.44816 13.0945 2.25598 14.2612C2.24556 14.3251 2.25001 14.3906 2.26897 14.4525C2.28794 14.5145 2.32091 14.5712 2.36533 14.6183C2.40975 14.6655 2.46443 14.7018 2.52513 14.7244C2.58583 14.747 2.65092 14.7553 2.71535 14.7487L6.51551 14.3315C6.51811 14.6181 6.53532 14.9044 6.56707 15.1893C6.5869 15.3862 6.67475 15.57 6.81551 15.7092L8.28691 17.1806C8.42615 17.3214 8.61016 17.4093 8.80723 17.429C9.09039 17.4606 9.37497 17.4778 9.65988 17.4806L9.24316 21.2774C9.23666 21.3418 9.24504 21.4068 9.26765 21.4674C9.29026 21.528 9.32651 21.5826 9.37358 21.6269C9.42066 21.6713 9.4773 21.7042 9.53914 21.7232C9.60097 21.7422 9.66634 21.7467 9.73019 21.7363C10.8974 21.5488 13.6208 20.8603 14.6554 18.494C15.021 17.6549 15.096 16.6757 15.0116 15.696C15.668 15.2335 16.2826 14.7145 16.8486 14.1449C20.0539 10.9574 22.2613 5.19838 21.6472 2.52229ZM13.9996 10.0157C13.7196 9.73582 13.5289 9.37917 13.4517 8.9909C13.3744 8.60262 13.414 8.20015 13.5655 7.83438C13.717 7.46862 13.9735 7.15599 14.3027 6.93604C14.6318 6.71608 15.0188 6.59868 15.4147 6.59868C15.8106 6.59868 16.1976 6.71608 16.5268 6.93604C16.8559 7.15599 17.1125 7.46862 17.264 7.83438C17.4155 8.20015 17.4551 8.60262 17.3778 8.9909C17.3005 9.37917 17.1099 9.73582 16.8299 10.0157C16.6442 10.2018 16.4236 10.3495 16.1808 10.4502C15.9379 10.5509 15.6776 10.6028 15.4147 10.6028C15.1518 10.6028 14.8915 10.5509 14.6487 10.4502C14.4058 10.3495 14.1853 10.2018 13.9996 10.0157Z" stroke="#4E4BFF" stroke-width="2" stroke-linecap="round" stroke-linejoin="round"/>
<path d="M5.13937 16.5C4.67208 16.5574 4.23735 16.7692 3.90422 17.1019C3.07828 17.9306 3 21 3 21C3 21 6.07125 20.9217 6.89766 20.0948C7.23168 19.7622 7.44387 19.3268 7.5 18.8588" stroke="#4E4BFF" stroke-width="2" stroke-linecap="round" stroke-linejoin="round"/>
</svg>
