<svg width="24" height="24" viewBox="0 0 24 24" fill="none" xmlns="http://www.w3.org/2000/svg">
<path d="M9.21695 2.7501H16.4629C16.5503 2.7498 16.6363 2.77128 16.7132 2.81261C16.7902 2.85394 16.8556 2.9138 16.9035 2.98678C16.9515 3.05976 16.9805 3.14355 16.9879 3.23057C16.9953 3.31758 16.9809 3.40507 16.9459 3.4851L14.1109 10.1021H18.8899C18.93 10.1025 18.969 10.1143 19.0025 10.1362C19.0361 10.1581 19.0626 10.1891 19.0791 10.2255C19.0956 10.262 19.1014 10.3024 19.0957 10.342C19.09 10.3816 19.0731 10.4188 19.0469 10.4491L9.30095 21.1601C9.27435 21.1999 9.23438 21.2288 9.1883 21.2416C9.14221 21.2544 9.09305 21.2503 9.04975 21.23C9.00645 21.2096 8.97186 21.1745 8.95226 21.1308C8.93267 21.0872 8.92936 21.038 8.94295 20.9921L9.90995 13.2521H5.43595C5.34906 13.2533 5.26323 13.2329 5.18614 13.1928C5.10904 13.1527 5.04308 13.0941 4.99415 13.0223C4.94522 12.9505 4.91484 12.8677 4.90573 12.7813C4.89662 12.6949 4.90906 12.6075 4.94195 12.5271L8.72195 3.0751C8.76202 2.97723 8.83072 2.89374 8.91904 2.83557C9.00737 2.7774 9.1112 2.74826 9.21695 2.7501Z" stroke="#4E4BFF" stroke-width="2" stroke-linecap="round" stroke-linejoin="round"/>
</svg>
