<svg width="40" height="40" viewBox="0 0 40 40" fill="none" xmlns="http://www.w3.org/2000/svg">
<path fill-rule="evenodd" clip-rule="evenodd" d="M16.5734 5.41675H23.4267C26.49 5.41675 28.9167 5.41675 30.815 5.67175C32.7684 5.93508 34.35 6.48841 35.5984 7.73508C36.7284 8.86508 37.29 10.2717 37.5817 11.9851C37.7934 13.2351 37.87 14.7167 37.8984 16.4567C37.9191 16.5835 37.9213 16.7126 37.905 16.8401C37.9095 17.3167 37.9128 17.8134 37.915 18.3301C37.9159 18.6616 37.7851 18.9799 37.5513 19.2149C37.4355 19.3313 37.298 19.4238 37.1465 19.487C36.995 19.5502 36.8325 19.583 36.6684 19.5834C36.3369 19.5843 36.0186 19.4534 35.7835 19.2197C35.5485 18.9859 35.4159 18.6683 35.415 18.3367V17.9167H4.58504C4.5817 18.5634 4.58059 19.2579 4.5817 20.0001C4.5817 23.1784 4.58504 25.4367 4.81504 27.1501C5.04004 28.8251 5.46337 29.7917 6.16837 30.4967C6.87337 31.2017 7.84004 31.6251 9.5167 31.8501C11.23 32.0801 13.4867 32.0834 16.665 32.0834H19.165C19.4966 32.0834 19.8145 32.2151 20.0489 32.4495C20.2833 32.6839 20.415 33.0019 20.415 33.3334C20.415 33.6649 20.2833 33.9829 20.0489 34.2173C19.8145 34.4517 19.4966 34.5834 19.165 34.5834H16.5734C13.51 34.5834 11.0834 34.5834 9.18504 34.3284C7.2317 34.0651 5.65004 33.5117 4.4017 32.2651C3.15504 31.0167 2.6017 29.4351 2.33837 27.4817C2.08337 25.5817 2.08337 23.1567 2.08337 20.0934V19.9067C2.08115 18.8045 2.08504 17.7823 2.09504 16.8401C2.07823 16.7127 2.07991 16.5836 2.10004 16.4567C2.1267 14.9451 2.18837 13.6401 2.33837 12.5184C2.6017 10.5651 3.15504 8.98341 4.4017 7.73508C5.65004 6.48841 7.2317 5.93508 9.18504 5.67175C11.085 5.41675 13.51 5.41675 16.5734 5.41675ZM4.6267 15.4167H35.3734C35.3334 14.2251 35.2567 13.2401 35.1167 12.4034C34.8784 11.0001 34.4717 10.1451 33.83 9.50341C33.125 8.79841 32.1584 8.37508 30.4817 8.15008C28.77 7.92008 26.5117 7.91675 23.3334 7.91675H16.6667C13.4884 7.91675 11.2317 7.92008 9.5167 8.15008C7.8417 8.37508 6.87504 8.79841 6.17004 9.50341C5.46504 10.2084 5.0417 11.1751 4.8167 12.8501C4.7167 13.5917 4.66004 14.4367 4.6267 15.4151M25.8334 22.0817C26.1649 22.0817 26.4828 22.2134 26.7173 22.4479C26.9517 22.6823 27.0834 23.0002 27.0834 23.3317V30.3151L28.2834 29.1151C28.3978 28.9923 28.5358 28.8938 28.6891 28.8254C28.8425 28.7571 29.008 28.7204 29.1758 28.7174C29.3437 28.7145 29.5104 28.7453 29.666 28.8082C29.8217 28.8711 29.9631 28.9646 30.0818 29.0833C30.2005 29.202 30.294 29.3434 30.3569 29.4991C30.4198 29.6547 30.4507 29.8214 30.4477 29.9893C30.4447 30.1571 30.408 30.3226 30.3397 30.476C30.2714 30.6293 30.1729 30.7673 30.05 30.8817L26.7167 34.2151C26.4823 34.4492 26.1646 34.5806 25.8334 34.5806C25.5021 34.5806 25.1844 34.4492 24.95 34.2151L21.6167 30.8817C21.4939 30.7673 21.3954 30.6293 21.3271 30.476C21.2587 30.3226 21.222 30.1571 21.2191 29.9893C21.2161 29.8214 21.247 29.6547 21.3098 29.4991C21.3727 29.3434 21.4663 29.202 21.585 29.0833C21.7037 28.9646 21.8451 28.8711 22.0007 28.8082C22.1564 28.7453 22.3231 28.7145 22.4909 28.7174C22.6587 28.7204 22.8243 28.7571 22.9776 28.8254C23.1309 28.8938 23.2689 28.9923 23.3834 29.1151L24.5834 30.3151V23.3334C24.5834 23.0019 24.7151 22.6839 24.9495 22.4495C25.1839 22.2151 25.5019 22.0834 25.8334 22.0834M32.45 22.4501C32.6844 22.216 33.0021 22.0845 33.3334 22.0845C33.6646 22.0845 33.9823 22.216 34.2167 22.4501L37.55 25.7834C37.6729 25.8978 37.7714 26.0358 37.8397 26.1892C37.908 26.3425 37.9447 26.508 37.9477 26.6759C37.9507 26.8437 37.9198 27.0104 37.8569 27.1661C37.794 27.3217 37.7005 27.4631 37.5818 27.5818C37.4631 27.7005 37.3217 27.7941 37.166 27.8569C37.0104 27.9198 36.8437 27.9507 36.6758 27.9477C36.508 27.9448 36.3425 27.908 36.1891 27.8397C36.0358 27.7714 35.8978 27.6729 35.7834 27.5501L34.5834 26.3501V33.3334C34.5834 33.6649 34.4517 33.9829 34.2173 34.2173C33.9828 34.4517 33.6649 34.5834 33.3334 34.5834C33.0019 34.5834 32.6839 34.4517 32.4495 34.2173C32.2151 33.9829 32.0834 33.6649 32.0834 33.3334V26.3501L30.8834 27.5501C30.7689 27.6729 30.6309 27.7714 30.4776 27.8397C30.3243 27.908 30.1587 27.9448 29.9909 27.9477C29.8231 27.9507 29.6564 27.9198 29.5007 27.8569C29.3451 27.7941 29.2037 27.7005 29.085 27.5818C28.9663 27.4631 28.8727 27.3217 28.8098 27.1661C28.747 27.0104 28.7161 26.8437 28.7191 26.6759C28.722 26.508 28.7588 26.3425 28.8271 26.1892C28.8954 26.0358 28.9939 25.8978 29.1167 25.7834L32.45 22.4501ZM8.75004 26.6667C8.75004 26.3352 8.88173 26.0173 9.11615 25.7829C9.35057 25.5484 9.66852 25.4167 10 25.4167H16.6667C16.9982 25.4167 17.3162 25.5484 17.5506 25.7829C17.785 26.0173 17.9167 26.3352 17.9167 26.6667C17.9167 26.9983 17.785 27.3162 17.5506 27.5506C17.3162 27.785 16.9982 27.9167 16.6667 27.9167H10C9.66852 27.9167 9.35057 27.785 9.11615 27.5506C8.88173 27.3162 8.75004 26.9983 8.75004 26.6667Z" fill="#4E4BFF"/>
</svg>
