<svg width="40" height="40" viewBox="0 0 40 40" fill="none" xmlns="http://www.w3.org/2000/svg">
<path d="M26.2499 24.1666C25.9184 24.1666 25.6005 24.2983 25.366 24.5327C25.1316 24.7671 24.9999 25.0851 24.9999 25.4166C24.9999 25.7481 25.1316 26.066 25.366 26.3005C25.6005 26.5349 25.9184 26.6666 26.2499 26.6666H30.4166C30.7481 26.6666 31.066 26.5349 31.3005 26.3005C31.5349 26.066 31.6666 25.7481 31.6666 25.4166C31.6666 25.0851 31.5349 24.7671 31.3005 24.5327C31.066 24.2983 30.7481 24.1666 30.4166 24.1666H26.2499ZM3.33325 13.7499C3.33325 12.3133 3.90393 10.9356 4.91976 9.91976C5.93558 8.90393 7.31333 8.33325 8.74992 8.33325H31.2499C31.9612 8.33325 32.6656 8.47336 33.3228 8.74557C33.98 9.01778 34.5771 9.41677 35.0801 9.91976C35.5831 10.4227 35.9821 11.0199 36.2543 11.6771C36.5265 12.3342 36.6666 13.0386 36.6666 13.7499V26.2499C36.6666 26.9612 36.5265 27.6656 36.2543 28.3228C35.9821 28.98 35.5831 29.5771 35.0801 30.0801C34.5771 30.5831 33.98 30.9821 33.3228 31.2543C32.6656 31.5265 31.9612 31.6666 31.2499 31.6666H8.74992C7.31333 31.6666 5.93558 31.0959 4.91976 30.0801C3.90393 29.0643 3.33325 27.6865 3.33325 26.2499V13.7499ZM34.1666 15.8333V13.7499C34.1666 12.9764 33.8593 12.2345 33.3123 11.6875C32.7653 11.1405 32.0235 10.8333 31.2499 10.8333H8.74992C7.97637 10.8333 7.2345 11.1405 6.68752 11.6875C6.14054 12.2345 5.83325 12.9764 5.83325 13.7499V15.8333H34.1666ZM5.83325 18.3333V26.2499C5.83325 27.8599 7.13992 29.1666 8.74992 29.1666H31.2499C32.0235 29.1666 32.7653 28.8593 33.3123 28.3123C33.8593 27.7653 34.1666 27.0235 34.1666 26.2499V18.3333H5.83325Z" fill="#4E4BFF"/>
</svg>
