<svg width="40" height="40" viewBox="0 0 40 40" fill="none" xmlns="http://www.w3.org/2000/svg">
<path d="M21.6666 5.00333C20.8833 5.00111 20.0499 5 19.1666 5C11.7033 5 7.96992 5 5.65159 7.31833C3.33325 9.63667 3.33325 13.3683 3.33325 20.8333C3.33325 28.2967 3.33325 32.03 5.65159 34.3483C7.96992 36.6667 11.7016 36.6667 19.1666 36.6667C26.6299 36.6667 30.3633 36.6667 32.6816 34.3483C34.9999 32.03 34.9999 28.2983 34.9999 20.8333C34.9999 19.95 34.9988 19.1167 34.9966 18.3333" stroke="#4E4BFF" stroke-width="2.5" stroke-linecap="round"/>
<path d="M30.8333 3.33325L31.2633 4.49492C31.8267 6.01825 32.1083 6.77992 32.6633 7.33492C33.22 7.89159 33.9817 8.17325 35.505 8.73659L36.6667 9.16659L35.505 9.59659C33.9817 10.1599 33.22 10.4416 32.665 10.9966C32.1083 11.5533 31.8267 12.3149 31.2633 13.8383L30.8333 14.9999L30.4033 13.8383C29.84 12.3149 29.5583 11.5533 29.0033 10.9983C28.4467 10.4416 27.685 10.1599 26.1617 9.59659L25 9.16659L26.1617 8.73659C27.685 8.17325 28.4467 7.89159 29.0017 7.33659C29.5583 6.77992 29.84 6.01825 30.4033 4.49492L30.8333 3.33325Z" stroke="#4E4BFF" stroke-width="2" stroke-linejoin="round"/>
<path d="M11.6665 29.1667C15.5532 25.0967 22.7382 24.905 26.6665 29.1667M23.3248 16.6667C23.3248 18.9667 21.4582 20.8333 19.1532 20.8333C18.6054 20.8342 18.0629 20.7271 17.5566 20.5181C17.0503 20.3091 16.5902 20.0023 16.2026 19.6153C15.815 19.2283 15.5075 18.7687 15.2976 18.2627C15.0878 17.7568 14.9798 17.2144 14.9798 16.6667C14.9798 14.3667 16.8465 12.5 19.1532 12.5C19.7008 12.4993 20.2431 12.6066 20.7492 12.8157C21.2553 13.0248 21.7152 13.3316 22.1027 13.7186C22.4901 14.1056 22.7975 14.5651 23.0072 15.071C23.2169 15.5768 23.3248 16.1191 23.3248 16.6667Z" stroke="#4E4BFF" stroke-width="2.5" stroke-linecap="round"/>
</svg>
