<svg width="40" height="40" viewBox="0 0 40 40" fill="none" xmlns="http://www.w3.org/2000/svg">
<path d="M8.33325 26.6666L16.6666 21.6666M23.3333 18.3333L31.6666 13.3333M19.9999 8.33325V16.6666M19.9999 23.3333V31.6666M8.33325 13.3333L16.6666 18.3333M23.3333 21.6666L31.6666 26.6666M34.1666 14.9999V24.1666M22.4999 34.1666L31.6666 29.1666M7.49992 29.1666L17.4999 34.1666M5.83325 24.9999V14.9999M7.49992 10.8333L17.4999 5.83325M32.4999 10.8333L22.4999 5.83325" stroke="#4E4BFF" stroke-width="2" stroke-linejoin="round"/>
<path d="M20 8.33325C21.3807 8.33325 22.5 7.21396 22.5 5.83325C22.5 4.45254 21.3807 3.33325 20 3.33325C18.6193 3.33325 17.5 4.45254 17.5 5.83325C17.5 7.21396 18.6193 8.33325 20 8.33325Z" stroke="#4E4BFF" stroke-width="2" stroke-linejoin="round"/>
<path d="M20 36.6665C21.3807 36.6665 22.5 35.5472 22.5 34.1665C22.5 32.7858 21.3807 31.6665 20 31.6665C18.6193 31.6665 17.5 32.7858 17.5 34.1665C17.5 35.5472 18.6193 36.6665 20 36.6665Z" stroke="#4E4BFF" stroke-width="2" stroke-linejoin="round"/>
<path d="M5.83325 15C7.21396 15 8.33325 13.8807 8.33325 12.5C8.33325 11.1193 7.21396 10 5.83325 10C4.45254 10 3.33325 11.1193 3.33325 12.5C3.33325 13.8807 4.45254 15 5.83325 15Z" stroke="#4E4BFF" stroke-width="2" stroke-linejoin="round"/>
<path d="M34.1665 15C35.5472 15 36.6665 13.8807 36.6665 12.5C36.6665 11.1193 35.5472 10 34.1665 10C32.7858 10 31.6665 11.1193 31.6665 12.5C31.6665 13.8807 32.7858 15 34.1665 15Z" stroke="#4E4BFF" stroke-width="2" stroke-linejoin="round"/>
<path d="M34.1665 30C35.5472 30 36.6665 28.8807 36.6665 27.5C36.6665 26.1193 35.5472 25 34.1665 25C32.7858 25 31.6665 26.1193 31.6665 27.5C31.6665 28.8807 32.7858 30 34.1665 30Z" stroke="#4E4BFF" stroke-width="2" stroke-linejoin="round"/>
<path d="M5.83325 30C7.21396 30 8.33325 28.8807 8.33325 27.5C8.33325 26.1193 7.21396 25 5.83325 25C4.45254 25 3.33325 26.1193 3.33325 27.5C3.33325 28.8807 4.45254 30 5.83325 30Z" stroke="#4E4BFF" stroke-width="2" stroke-linejoin="round"/>
<path d="M19.9998 16.25L23.3332 18.125V21.875L19.9998 23.75L16.6665 21.875V18.125L19.9998 16.25Z" stroke="#4E4BFF" stroke-width="2" stroke-linejoin="round"/>
</svg>
