<svg width="40" height="40" viewBox="0 0 40 40" fill="none" xmlns="http://www.w3.org/2000/svg">
<path d="M35 20C35 17.0318 34.1194 14.1303 32.4696 11.6628C30.8198 9.1953 28.4751 7.27273 25.7321 6.13846C22.9892 5.00418 19.9714 4.70918 17.0608 5.2908C14.1501 5.87242 11.4774 7.30451 9.38102 9.4058C7.28464 11.5071 5.85879 14.1831 5.28397 17.0951C4.70915 20.0071 5.0112 23.0242 6.15188 25.7645C7.29257 28.5048 9.2206 30.845 11.6919 32.489C14.1633 34.133 17.0668 35.0069 20.035 35M6.00001 15H34M6.00001 25H20.8333" stroke="#4E4BFF" stroke-width="2.5" stroke-linecap="round" stroke-linejoin="round"/>
<path d="M19.1667 5C16.3589 9.49935 14.8704 14.6964 14.8704 20C14.8704 25.3036 16.3589 30.5006 19.1667 35M20.8334 5C24.0555 10.1634 25.5293 16.2271 25.0367 22.2933M31.6684 35C30.7843 35 29.9365 34.6488 29.3113 34.0237C28.6862 33.3986 28.335 32.5507 28.335 31.6667C28.335 30.7826 28.6862 29.9348 29.3113 29.3096C29.9365 28.6845 30.7843 28.3333 31.6684 28.3333M31.6684 35C32.5524 35 33.4003 34.6488 34.0254 34.0237C34.6505 33.3986 35.0017 32.5507 35.0017 31.6667C35.0017 30.7826 34.6505 29.9348 34.0254 29.3096C33.4003 28.6845 32.5524 28.3333 31.6684 28.3333M31.6684 35V37.5M31.6684 28.3333V25.8333M36.72 28.75L34.555 30M28.7834 33.3333L26.6167 34.5833M26.6167 28.75L28.7834 30M34.555 33.3333L36.7217 34.5833" stroke="#4E4BFF" stroke-width="2.5" stroke-linecap="round" stroke-linejoin="round"/>
</svg>
